<?xml version="1.0" encoding="UTF-8"?><!DOCTYPE score-partwise PUBLIC "-//Recordare//DTD MusicXML 2.0 Partwise//EN"                                "http://www.musicxml.org/dtds/partwise.dtd"><score-partwise version="2.0">  <movement-title>La clé du caveau, 4e édition, 1872, n°2224</movement-title>  <identification>    <encoding>      <software>Finale 2011 for Macintosh</software>      <software>Dolet Light for Finale 2011</software>      <encoding-date>2014-11-23</encoding-date>      <supports attribute="new-system" element="print" type="yes" value="yes"/>      <supports attribute="new-page" element="print" type="yes" value="yes"/>    </encoding>  </identification>  <defaults>    <scaling>      <millimeters>7.2319</millimeters>      <tenths>40</tenths>    </scaling>    <page-layout>      <page-height>1643</page-height>      <page-width>1161</page-width>      <page-margins type="both">        <left-margin>70</left-margin>        <right-margin>70</right-margin>        <top-margin>88</top-margin>        <bottom-margin>88</bottom-margin>      </page-margins>    </page-layout>    <system-layout>      <system-margins>        <left-margin>0</left-margin>        <right-margin>0</right-margin>      </system-margins>      <system-distance>121</system-distance>      <top-system-distance>70</top-system-distance>    </system-layout>    <appearance>      <line-width type="stem">0.7487</line-width>      <line-width type="beam">5</line-width>      <line-width type="staff">0.7487</line-width>      <line-width type="light barline">0.7487</line-width>      <line-width type="heavy barline">5</line-width>      <line-width type="leger">0.7487</line-width>      <line-width type="ending">1.4583</line-width>      <line-width type="wedge">0.7487</line-width>      <line-width type="enclosure">0.7487</line-width>      <line-width type="tuplet bracket">0.7487</line-width>      <note-size type="grace">60</note-size>      <note-size type="cue">60</note-size>    </appearance>    <music-font font-family="Maestro" font-size="20.5"/>    <word-font font-family="Times New Roman" font-size="10.25"/>  </defaults>  <credit page="1">    <credit-words default-x="597" default-y="1440" font-size="24" font-weight="bold" justify="center" valign="top" xml:lang="fr">La clé du caveau, 4e édition, 1872, n°2224</credit-words>  </credit>  <credit page="2">    <credit-words default-x="581" default-y="1579" font-size="12" justify="center" valign="top" xml:lang="fr">La clé du caveau, 4e édition, 1872, n°2224</credit-words>  </credit>  <credit page="2">    <credit-words default-x="70" default-y="1579" font-size="14" valign="top">2</credit-words>  </credit>  <part-list>    <score-part id="P1">      <part-name print-object="no">MusicXML Part</part-name>      <score-instrument id="P1-I1">        <instrument-name>Grand Piano</instrument-name>      </score-instrument>      <midi-instrument id="P1-I1">        <midi-channel>1</midi-channel>        <midi-program>1</midi-program>        <volume>80</volume>        <pan>0</pan>      </midi-instrument>    </score-part>  </part-list>  <!--=========================================================-->  <part id="P1">    <measure number="1" width="274">      <print page-number="1">        <page-layout>          <page-height>1545</page-height>          <page-width>1194</page-width>        </page-layout>        <system-layout>          <system-margins>            <left-margin>70</left-margin>            <right-margin>0</right-margin>          </system-margins>          <top-system-distance>211</top-system-distance>        </system-layout>        <measure-numbering>system</measure-numbering>      </print>      <attributes>        <divisions>1024</divisions>        <key>          <fifths>-1</fifths>          <mode>major</mode>        </key>        <time>          <beats>3</beats>          <beat-type>4</beat-type>        </time>        <clef>          <sign>G</sign>          <line>2</line>        </clef>      </attributes>      <sound tempo="120"/>      <direction directive="yes" placement="above">        <direction-type>          <words default-y="40" font-size="12" font-weight="bold">Andante 

</words>        </direction-type>      </direction>      <note default-x="108">        <pitch>          <step>F</step>          <octave>4</octave>        </pitch>        <duration>1024</duration>        <voice>1</voice>        <type>quarter</type>        <stem default-y="0">up</stem>        <notations>          <slur bezier-x="53" bezier-y="39" default-x="17" default-y="2" number="1" placement="above" type="start"/>        </notations>      </note>      <note default-x="156">        <pitch>          <step>G</step>          <octave>4</octave>        </pitch>        <duration>512</duration>        <voice>1</voice>        <type>eighth</type>        <stem default-y="5.5">up</stem>      </note>      <note default-x="185">        <pitch>          <step>A</step>          <octave>4</octave>        </pitch>        <duration>512</duration>        <voice>1</voice>        <type>eighth</type>        <stem default-y="10.5">up</stem>      </note>      <note default-x="215">        <pitch>          <step>G</step>          <octave>4</octave>        </pitch>        <duration>512</duration>        <voice>1</voice>        <type>eighth</type>        <stem default-y="5.5">up</stem>      </note>      <note default-x="244">        <pitch>          <step>F</step>          <octave>4</octave>        </pitch>        <duration>512</duration>        <voice>1</voice>        <type>eighth</type>        <stem default-y="0">up</stem>      </note>    </measure>    <!--=======================================================-->    <measure number="2" width="120">      <note default-x="14">        <pitch>          <step>C</step>          <octave>5</octave>        </pitch>        <duration>2048</duration>        <voice>1</voice>        <type>half</type>        <stem default-y="-50.5">down</stem>      </note>      <note default-x="79">        <pitch>          <step>C</step>          <octave>5</octave>        </pitch>        <duration>1024</duration>        <voice>1</voice>        <type>quarter</type>        <stem default-y="-50.5">down</stem>        <notations>          <slur bezier-x="-53" bezier-y="38" default-x="5" default-y="4" number="1" type="stop"/>        </notations>      </note>    </measure>    <!--=======================================================-->    <measure number="3" width="167">      <note default-x="14">        <pitch>          <step>D</step>          <octave>5</octave>        </pitch>        <duration>1024</duration>        <voice>1</voice>        <type>quarter</type>        <stem default-y="-45">down</stem>        <notations>          <slur bezier-x="53" bezier-y="30" default-x="6" default-y="4" number="1" placement="above" type="start"/>        </notations>      </note>      <note default-x="58">        <pitch>          <step>C</step>          <octave>5</octave>        </pitch>        <duration>512</duration>        <voice>1</voice>        <type>eighth</type>        <stem default-y="-50.5">down</stem>      </note>      <note default-x="84">        <pitch>          <step>B</step>          <alter>-1</alter>          <octave>4</octave>        </pitch>        <duration>512</duration>        <voice>1</voice>        <type>eighth</type>        <stem default-y="-55">down</stem>      </note>      <note default-x="111">        <pitch>          <step>A</step>          <octave>4</octave>        </pitch>        <duration>512</duration>        <voice>1</voice>        <type>eighth</type>        <stem default-y="10.5">up</stem>        <notations>          <slur bezier-x="-48" bezier-y="37" default-x="101" default-y="-10" number="1" type="stop"/>        </notations>      </note>      <note default-x="139">        <pitch>          <step>G</step>          <octave>4</octave>        </pitch>        <duration>512</duration>        <voice>1</voice>        <type>eighth</type>        <stem default-y="5.5">up</stem>      </note>    </measure>    <!--=======================================================-->    <measure number="4" width="123">      <note default-x="17">        <pitch>          <step>C</step>          <octave>4</octave>        </pitch>        <duration>2048</duration>        <voice>1</voice>        <type>half</type>        <stem default-y="-14.5">up</stem>      </note>      <note default-x="81">        <rest/>        <duration>1024</duration>        <voice>1</voice>        <type>quarter</type>      </note>    </measure>    <!--=======================================================-->    <measure number="5" width="180">      <note default-x="14">        <pitch>          <step>F</step>          <octave>4</octave>        </pitch>        <duration>1024</duration>        <voice>1</voice>        <type>quarter</type>        <stem default-y="0">up</stem>        <notations>          <slur bezier-x="57" bezier-y="35" default-x="10" default-y="9" number="1" placement="above" type="start"/>        </notations>      </note>      <note default-x="61">        <pitch>          <step>G</step>          <octave>4</octave>        </pitch>        <duration>512</duration>        <voice>1</voice>        <type>eighth</type>        <stem default-y="5.5">up</stem>      </note>      <note default-x="91">        <pitch>          <step>A</step>          <octave>4</octave>        </pitch>        <duration>512</duration>        <voice>1</voice>        <type>eighth</type>        <stem default-y="10.5">up</stem>      </note>      <note default-x="120">        <pitch>          <step>G</step>          <octave>4</octave>        </pitch>        <duration>512</duration>        <voice>1</voice>        <type>eighth</type>        <stem default-y="5.5">up</stem>      </note>      <note default-x="149">        <pitch>          <step>F</step>          <octave>4</octave>        </pitch>        <duration>512</duration>        <voice>1</voice>        <type>eighth</type>        <stem default-y="0">up</stem>      </note>    </measure>    <!--=======================================================-->    <measure number="6" width="120">      <note default-x="14">        <pitch>          <step>C</step>          <octave>5</octave>        </pitch>        <duration>2048</duration>        <voice>1</voice>        <type>half</type>        <stem default-y="-50.5">down</stem>      </note>      <note default-x="79">        <pitch>          <step>C</step>          <octave>5</octave>        </pitch>        <duration>1024</duration>        <voice>1</voice>        <type>quarter</type>        <stem default-y="-50.5">down</stem>        <notations>          <slur bezier-x="-52" bezier-y="41" default-x="6" default-y="-5" number="1" type="stop"/>        </notations>      </note>    </measure>    <!--=======================================================-->    <measure number="7" width="217">      <print new-system="yes">        <system-layout>          <system-distance>114</system-distance>        </system-layout>      </print>      <note default-x="77">        <pitch>          <step>E</step>          <octave>5</octave>        </pitch>        <duration>1024</duration>        <voice>1</voice>        <type>quarter</type>        <stem default-y="-40">down</stem>        <notations>          <slur bezier-x="43" bezier-y="24" default-x="7" default-y="5" number="1" placement="above" type="start"/>        </notations>      </note>      <note default-x="113">        <pitch>          <step>D</step>          <octave>5</octave>        </pitch>        <duration>512</duration>        <voice>1</voice>        <type>eighth</type>        <stem default-y="-45.5">down</stem>      </note>      <note default-x="136">        <pitch>          <step>C</step>          <octave>5</octave>        </pitch>        <duration>512</duration>        <voice>1</voice>        <type>eighth</type>        <stem default-y="-50">down</stem>      </note>      <note default-x="158">        <pitch>          <step>B</step>          <alter>-1</alter>          <octave>4</octave>        </pitch>        <duration>768</duration>        <voice>1</voice>        <type>eighth</type>        <dot/>        <stem default-y="-55">down</stem>      </note>      <note default-x="187">        <pitch>          <step>G</step>          <octave>4</octave>        </pitch>        <duration>256</duration>        <voice>1</voice>        <type>16th</type>        <stem default-y="5">up</stem>        <notations>          <slur bezier-x="-42" bezier-y="26" default-x="66" default-y="1" number="1" type="stop"/>        </notations>      </note>    </measure>    <!--=======================================================-->    <measure number="8" width="91">      <note default-x="13">        <pitch>          <step>F</step>          <octave>4</octave>        </pitch>        <duration>3072</duration>        <voice>1</voice>        <type>half</type>        <dot/>        <stem default-y="0.5">up</stem>      </note>    </measure>    <!--=======================================================-->    <measure number="9" width="144">      <note default-x="13">        <pitch>          <step>A</step>          <octave>4</octave>        </pitch>        <duration>1024</duration>        <voice>1</voice>        <type>quarter</type>        <stem default-y="11">up</stem>      </note>      <note default-x="49">        <pitch>          <step>B</step>          <octave>4</octave>        </pitch>        <duration>512</duration>        <voice>1</voice>        <type>eighth</type>        <accidental>natural</accidental>        <stem default-y="-55">down</stem>      </note>      <note default-x="71">        <pitch>          <step>C</step>          <octave>5</octave>        </pitch>        <duration>512</duration>        <voice>1</voice>        <type>eighth</type>        <stem default-y="-50">down</stem>      </note>      <note default-x="94">        <pitch>          <step>B</step>          <octave>4</octave>        </pitch>        <duration>512</duration>        <voice>1</voice>        <type>eighth</type>        <stem default-y="-55">down</stem>      </note>      <note default-x="116">        <pitch>          <step>A</step>          <octave>4</octave>        </pitch>        <duration>512</duration>        <voice>1</voice>        <type>eighth</type>        <stem default-y="11">up</stem>      </note>    </measure>    <!--=======================================================-->    <measure number="10" width="108">      <note default-x="14">        <pitch>          <step>E</step>          <octave>5</octave>        </pitch>        <duration>2048</duration>        <voice>1</voice>        <type>half</type>        <stem default-y="-40">down</stem>      </note>      <note default-x="72">        <pitch>          <step>E</step>          <octave>5</octave>        </pitch>        <duration>1024</duration>        <voice>1</voice>        <type>quarter</type>        <stem default-y="-40">down</stem>      </note>    </measure>    <!--=======================================================-->    <measure number="11" width="149">      <note default-x="14">        <pitch>          <step>A</step>          <octave>4</octave>        </pitch>        <duration>1024</duration>        <voice>1</voice>        <type>quarter</type>        <stem default-y="11">up</stem>      </note>      <note default-x="50">        <pitch>          <step>B</step>          <alter>-1</alter>          <octave>4</octave>        </pitch>        <duration>512</duration>        <voice>1</voice>        <type>eighth</type>        <stem default-y="-55">down</stem>      </note>      <note default-x="72">        <pitch>          <step>C</step>          <octave>5</octave>        </pitch>        <duration>512</duration>        <voice>1</voice>        <type>eighth</type>        <stem default-y="-50">down</stem>      </note>      <note default-x="95">        <pitch>          <step>C</step>          <octave>5</octave>        </pitch>        <duration>341</duration>        <voice>1</voice>        <type>eighth</type>        <time-modification>          <actual-notes>3</actual-notes>          <normal-notes>2</normal-notes>        </time-modification>        <stem default-y="20">up</stem>        <beam number="1">begin</beam>        <notations>          <tuplet number="1" placement="above" type="start"/>        </notations>      </note>      <note default-x="113">        <pitch>          <step>B</step>          <alter>-1</alter>          <octave>4</octave>        </pitch>        <duration>342</duration>        <voice>1</voice>        <type>eighth</type>        <time-modification>          <actual-notes>3</actual-notes>          <normal-notes>2</normal-notes>        </time-modification>        <stem default-y="17.5">up</stem>        <beam number="1">continue</beam>      </note>      <note default-x="131">        <pitch>          <step>G</step>          <octave>4</octave>        </pitch>        <duration>341</duration>        <voice>1</voice>        <type>eighth</type>        <time-modification>          <actual-notes>3</actual-notes>          <normal-notes>2</normal-notes>        </time-modification>        <stem default-y="15">up</stem>        <beam number="1">end</beam>        <notations>          <tuplet number="1" type="stop"/>        </notations>      </note>    </measure>    <!--=======================================================-->    <measure number="12" width="91">      <note default-x="14">        <pitch>          <step>E</step>          <octave>4</octave>        </pitch>        <duration>3072</duration>        <tie type="start"/>        <voice>1</voice>        <type>half</type>        <dot/>        <stem default-y="-4.5">up</stem>        <notations>          <tied type="start"/>        </notations>      </note>    </measure>    <!--=======================================================-->    <measure number="13" width="162">      <note default-x="14">        <pitch>          <step>F</step>          <octave>4</octave>        </pitch>        <duration>1024</duration>        <voice>1</voice>        <type>quarter</type>        <stem default-y="0.5">up</stem>      </note>      <note default-x="51">        <pitch>          <step>G</step>          <octave>4</octave>        </pitch>        <duration>512</duration>        <voice>1</voice>        <type>eighth</type>        <stem default-y="5">up</stem>      </note>      <note default-x="79">        <pitch>          <step>A</step>          <octave>4</octave>        </pitch>        <duration>512</duration>        <voice>1</voice>        <type>eighth</type>        <stem default-y="11">up</stem>      </note>      <note default-x="106">        <pitch>          <step>G</step>          <octave>4</octave>        </pitch>        <duration>512</duration>        <voice>1</voice>        <type>eighth</type>        <stem default-y="5">up</stem>      </note>      <note default-x="134">        <pitch>          <step>F</step>          <octave>4</octave>        </pitch>        <duration>512</duration>        <voice>1</voice>        <type>eighth</type>        <stem default-y="0.5">up</stem>      </note>    </measure>    <!--=======================================================-->    <measure number="14" width="91">      <note default-x="14">        <pitch>          <step>C</step>          <octave>5</octave>        </pitch>        <duration>3072</duration>        <tie type="start"/>        <voice>1</voice>        <type>half</type>        <dot/>        <stem default-y="-50">down</stem>        <notations>          <tied type="start"/>        </notations>      </note>    </measure>    <!--=======================================================-->    <measure number="15" width="223">      <print new-system="yes">        <system-layout>          <system-distance>114</system-distance>        </system-layout>      </print>      <note default-x="77">        <pitch>          <step>D</step>          <octave>5</octave>        </pitch>        <duration>1024</duration>        <voice>1</voice>        <type>quarter</type>        <stem default-y="-45">down</stem>      </note>      <note default-x="118">        <pitch>          <step>C</step>          <octave>5</octave>        </pitch>        <duration>512</duration>        <voice>1</voice>        <type>eighth</type>        <stem default-y="-50">down</stem>      </note>      <note default-x="142">        <pitch>          <step>B</step>          <alter>-1</alter>          <octave>4</octave>        </pitch>        <duration>512</duration>        <voice>1</voice>        <type>eighth</type>        <stem default-y="-55">down</stem>      </note>      <note default-x="167">        <pitch>          <step>G</step>          <octave>4</octave>        </pitch>        <duration>512</duration>        <voice>1</voice>        <type>eighth</type>        <stem default-y="5.5">up</stem>      </note>      <note default-x="195">        <pitch>          <step>E</step>          <octave>4</octave>        </pitch>        <duration>512</duration>        <voice>1</voice>        <type>eighth</type>        <stem default-y="-4">up</stem>      </note>    </measure>    <!--=======================================================-->    <measure number="16" width="99">      <note default-x="16">        <pitch>          <step>C</step>          <octave>4</octave>        </pitch>        <duration>3072</duration>        <voice>1</voice>        <type>half</type>        <dot/>        <stem default-y="-14.5">up</stem>      </note>    </measure>    <!--=======================================================-->    <measure number="17" width="194">      <note default-x="13">        <pitch>          <step>F</step>          <octave>4</octave>        </pitch>        <duration>1024</duration>        <voice>1</voice>        <type>quarter</type>        <stem default-y="0.5">up</stem>      </note>      <note default-x="55">        <pitch>          <step>G</step>          <octave>4</octave>        </pitch>        <duration>768</duration>        <voice>1</voice>        <type>eighth</type>        <dot/>        <stem default-y="5.5">up</stem>      </note>      <note default-x="95">        <pitch>          <step>A</step>          <octave>4</octave>        </pitch>        <duration>256</duration>        <voice>1</voice>        <type>16th</type>        <stem default-y="10">up</stem>      </note>      <note default-x="124">        <pitch>          <step>G</step>          <octave>4</octave>        </pitch>        <duration>768</duration>        <voice>1</voice>        <type>eighth</type>        <dot/>        <stem default-y="5.5">up</stem>      </note>      <note default-x="165">        <pitch>          <step>F</step>          <octave>4</octave>        </pitch>        <duration>256</duration>        <voice>1</voice>        <type>16th</type>        <stem default-y="0.5">up</stem>      </note>    </measure>    <!--=======================================================-->    <measure number="18" width="231">      <note default-x="14">        <pitch>          <step>F</step>          <octave>5</octave>        </pitch>        <duration>1024</duration>        <tie type="start"/>        <voice>1</voice>        <type>quarter</type>        <stem default-y="-35">down</stem>        <notations>          <tied type="start"/>        </notations>      </note>      <note default-x="55">        <pitch>          <step>F</step>          <octave>5</octave>        </pitch>        <duration>256</duration>        <tie type="stop"/>        <voice>1</voice>        <type>16th</type>        <stem default-y="-50">down</stem>        <beam number="1">begin</beam>        <beam number="2">begin</beam>        <notations>          <tied type="stop"/>        </notations>      </note>      <note default-x="75">        <pitch>          <step>E</step>          <octave>5</octave>        </pitch>        <duration>256</duration>        <voice>1</voice>        <type>16th</type>        <stem default-y="-50">down</stem>        <beam number="1">continue</beam>        <beam number="2">continue</beam>      </note>      <note default-x="95">        <pitch>          <step>F</step>          <octave>5</octave>        </pitch>        <duration>256</duration>        <voice>1</voice>        <type>16th</type>        <stem default-y="-50">down</stem>        <beam number="1">continue</beam>        <beam number="2">continue</beam>      </note>      <note default-x="114">        <pitch>          <step>C</step>          <octave>5</octave>        </pitch>        <duration>256</duration>        <voice>1</voice>        <type>16th</type>        <stem default-y="-50">down</stem>        <beam number="1">continue</beam>        <beam number="2">continue</beam>      </note>      <note default-x="134">        <pitch>          <step>D</step>          <octave>5</octave>        </pitch>        <duration>256</duration>        <voice>1</voice>        <type>16th</type>        <stem default-y="-50">down</stem>        <beam number="1">continue</beam>        <beam number="2">continue</beam>      </note>      <note default-x="153">        <pitch>          <step>C</step>          <octave>5</octave>        </pitch>        <duration>256</duration>        <voice>1</voice>        <type>16th</type>        <stem default-y="-50">down</stem>        <beam number="1">end</beam>        <beam number="2">end</beam>      </note>      <note default-x="173">        <pitch>          <step>A</step>          <octave>4</octave>        </pitch>        <duration>256</duration>        <voice>1</voice>        <type>16th</type>        <stem default-y="10">up</stem>      </note>      <note default-x="202">        <pitch>          <step>F</step>          <octave>4</octave>        </pitch>        <duration>256</duration>        <voice>1</voice>        <type>16th</type>        <stem default-y="0.5">up</stem>      </note>    </measure>    <!--=======================================================-->    <measure number="19" width="306">      <note default-x="13">        <pitch>          <step>E</step>          <octave>4</octave>        </pitch>        <duration>256</duration>        <voice>1</voice>        <type>16th</type>        <stem default-y="0">up</stem>        <beam number="1">begin</beam>        <beam number="2">begin</beam>      </note>      <note default-x="35">        <pitch>          <step>G</step>          <octave>4</octave>        </pitch>        <duration>256</duration>        <voice>1</voice>        <type>16th</type>        <stem default-y="5">up</stem>        <beam number="1">end</beam>        <beam number="2">end</beam>      </note>      <note default-x="56">        <pitch>          <step>C</step>          <octave>5</octave>        </pitch>        <duration>256</duration>        <voice>1</voice>        <type>16th</type>        <stem default-y="-50">down</stem>      </note>      <note default-x="78">        <pitch>          <step>E</step>          <octave>5</octave>        </pitch>        <duration>128</duration>        <voice>1</voice>        <type>32nd</type>        <stem default-y="-49">down</stem>      </note>      <note default-x="96">        <pitch>          <step>G</step>          <octave>5</octave>        </pitch>        <duration>1024</duration>        <tie type="start"/>        <voice>1</voice>        <type>quarter</type>        <stem default-y="-30">down</stem>        <notations>          <tied type="start"/>        </notations>      </note>      <note default-x="143">        <pitch>          <step>G</step>          <octave>5</octave>        </pitch>        <duration>128</duration>        <tie type="stop"/>        <voice>1</voice>        <type>32nd</type>        <stem default-y="-38.5">down</stem>        <notations>          <tied type="stop"/>        </notations>      </note>      <note default-x="161">        <pitch>          <step>F</step>          <octave>5</octave>        </pitch>        <duration>128</duration>        <voice>1</voice>        <type>32nd</type>        <stem default-y="-72">down</stem>        <beam number="1">begin</beam>        <beam number="2">begin</beam>        <beam number="3">begin</beam>      </note>      <note default-x="179">        <pitch>          <step>E</step>          <octave>5</octave>        </pitch>        <duration>128</duration>        <voice>1</voice>        <type>32nd</type>        <stem default-y="-73">down</stem>        <beam number="1">continue</beam>        <beam number="2">continue</beam>        <beam number="3">continue</beam>      </note>      <note default-x="197">        <pitch>          <step>D</step>          <octave>5</octave>        </pitch>        <duration>128</duration>        <voice>1</voice>        <type>32nd</type>        <stem default-y="-74">down</stem>        <beam number="1">continue</beam>        <beam number="2">continue</beam>        <beam number="3">continue</beam>      </note>      <note default-x="215">        <pitch>          <step>C</step>          <octave>5</octave>        </pitch>        <duration>128</duration>        <voice>1</voice>        <type>32nd</type>        <stem default-y="-74.5">down</stem>        <beam number="1">continue</beam>        <beam number="2">continue</beam>        <beam number="3">continue</beam>      </note>      <note default-x="233">        <pitch>          <step>B</step>          <alter>-1</alter>          <octave>4</octave>        </pitch>        <duration>128</duration>        <voice>1</voice>        <type>32nd</type>        <stem default-y="-75">down</stem>        <beam number="1">continue</beam>        <beam number="2">continue</beam>        <beam number="3">continue</beam>      </note>      <note default-x="251">        <pitch>          <step>A</step>          <octave>4</octave>        </pitch>        <duration>128</duration>        <voice>1</voice>        <type>32nd</type>        <stem default-y="-76">down</stem>        <beam number="1">continue</beam>        <beam number="2">continue</beam>        <beam number="3">continue</beam>      </note>      <note default-x="269">        <pitch>          <step>G</step>          <octave>4</octave>        </pitch>        <duration>128</duration>        <voice>1</voice>        <type>32nd</type>        <stem default-y="-76.5">down</stem>        <beam number="1">continue</beam>        <beam number="2">continue</beam>        <beam number="3">continue</beam>      </note>      <note default-x="287">        <pitch>          <step>F</step>          <octave>4</octave>        </pitch>        <duration>128</duration>        <voice>1</voice>        <type>32nd</type>        <stem default-y="-77.5">down</stem>        <beam number="1">end</beam>        <beam number="2">end</beam>        <beam number="3">end</beam>      </note>    </measure>    <!--=======================================================-->    <measure number="20" width="261">      <print new-system="yes">        <system-layout>          <system-distance>114</system-distance>        </system-layout>      </print>      <note default-x="77">        <pitch>          <step>E</step>          <octave>4</octave>        </pitch>        <duration>512</duration>        <voice>1</voice>        <type>eighth</type>        <stem default-y="-5">up</stem>      </note>      <note default-x="106">        <pitch>          <step>D</step>          <octave>5</octave>        </pitch>        <duration>1024</duration>        <voice>1</voice>        <type>quarter</type>        <stem default-y="-45">down</stem>      </note>      <note default-x="145">        <pitch>          <step>A</step>          <octave>4</octave>        </pitch>        <duration>512</duration>        <voice>1</voice>        <type>eighth</type>        <stem default-y="10">up</stem>        <notations>          <ornaments>            <trill-mark default-x="9" default-y="27" placement="above"/>          </ornaments>        </notations>      </note>      <note default-x="175">        <pitch>          <step>B</step>          <alter>-1</alter>          <octave>4</octave>        </pitch>        <duration>256</duration>        <voice>1</voice>        <type>16th</type>        <stem default-y="15">up</stem>        <beam number="1">begin</beam>        <beam number="2">begin</beam>      </note>      <note default-x="194">        <pitch>          <step>A</step>          <octave>4</octave>        </pitch>        <duration>256</duration>        <voice>1</voice>        <type>16th</type>        <stem default-y="15">up</stem>        <beam number="1">continue</beam>        <beam number="2">continue</beam>      </note>      <note default-x="213">        <pitch>          <step>B</step>          <alter>-1</alter>          <octave>4</octave>        </pitch>        <duration>256</duration>        <voice>1</voice>        <type>16th</type>        <stem default-y="15">up</stem>        <beam number="1">end</beam>        <beam number="2">end</beam>      </note>      <note default-x="231">        <pitch>          <step>G</step>          <octave>4</octave>        </pitch>        <duration>256</duration>        <voice>1</voice>        <type>16th</type>        <stem default-y="5.5">up</stem>      </note>    </measure>    <!--=======================================================-->    <measure number="21" width="147">      <direction placement="above">        <direction-type>          <dynamics default-x="97" default-y="22">            <f/>          </dynamics>        </direction-type>        <offset sound="yes">2048</offset>        <sound dynamics="98"/>      </direction>      <note default-x="13">        <pitch>          <step>F</step>          <octave>4</octave>        </pitch>        <duration>1024</duration>        <voice>1</voice>        <type>quarter</type>        <stem default-y="0.5">up</stem>      </note>      <note default-x="52">        <rest/>        <duration>1024</duration>        <voice>1</voice>        <type>quarter</type>      </note>      <note default-x="91">        <pitch>          <step>A</step>          <octave>4</octave>        </pitch>        <duration>768</duration>        <voice>1</voice>        <type>eighth</type>        <dot/>        <stem default-y="10">up</stem>      </note>      <note default-x="128">        <pitch>          <step>B</step>          <alter>-1</alter>          <octave>4</octave>        </pitch>        <duration>256</duration>        <voice>1</voice>        <type>16th</type>        <stem default-y="-55.5">down</stem>      </note>    </measure>    <!--=======================================================-->    <measure number="22" width="150">      <note default-x="14">        <pitch>          <step>C</step>          <octave>5</octave>        </pitch>        <duration>1024</duration>        <voice>1</voice>        <type>quarter</type>        <stem default-y="-50">down</stem>      </note>      <note default-x="52">        <pitch>          <step>D</step>          <octave>5</octave>        </pitch>        <duration>512</duration>        <voice>1</voice>        <type>eighth</type>        <stem default-y="-45">down</stem>      </note>      <note default-x="75">        <pitch>          <step>C</step>          <octave>5</octave>        </pitch>        <duration>512</duration>        <voice>1</voice>        <type>eighth</type>        <stem default-y="-50">down</stem>      </note>      <note default-x="98">        <pitch>          <step>B</step>          <alter>-1</alter>          <octave>4</octave>        </pitch>        <duration>512</duration>        <voice>1</voice>        <type>eighth</type>        <stem default-y="-55.5">down</stem>      </note>      <note default-x="122">        <pitch>          <step>A</step>          <octave>4</octave>        </pitch>        <duration>512</duration>        <voice>1</voice>        <type>eighth</type>        <stem default-y="10">up</stem>      </note>    </measure>    <!--=======================================================-->    <measure number="23" width="172">      <note default-x="14">        <pitch>          <step>A</step>          <octave>4</octave>        </pitch>        <duration>1024</duration>        <voice>1</voice>        <type>quarter</type>        <stem default-y="10">up</stem>      </note>      <note default-x="52">        <pitch>          <step>G</step>          <octave>4</octave>        </pitch>        <duration>512</duration>        <voice>1</voice>        <type>eighth</type>        <stem default-y="5.5">up</stem>      </note>      <note default-x="80">        <rest/>        <duration>512</duration>        <voice>1</voice>        <type>eighth</type>      </note>      <note default-x="104">        <pitch>          <step>G</step>          <octave>4</octave>        </pitch>        <duration>768</duration>        <voice>1</voice>        <type>eighth</type>        <dot/>        <stem default-y="5.5">up</stem>      </note>      <note default-x="143">        <pitch>          <step>F</step>          <octave>4</octave>        </pitch>        <duration>256</duration>        <voice>1</voice>        <type>16th</type>        <stem default-y="0.5">up</stem>      </note>    </measure>    <!--=======================================================-->    <measure number="24" width="173">      <note default-x="13">        <pitch>          <step>E</step>          <octave>4</octave>        </pitch>        <duration>768</duration>        <voice>1</voice>        <type>eighth</type>        <dot/>        <stem default-y="-5">up</stem>      </note>      <note default-x="52">        <pitch>          <step>G</step>          <octave>4</octave>        </pitch>        <duration>256</duration>        <voice>1</voice>        <type>16th</type>        <stem default-y="5.5">up</stem>      </note>      <note default-x="84">        <pitch>          <step>C</step>          <octave>4</octave>        </pitch>        <duration>1024</duration>        <voice>1</voice>        <type>quarter</type>        <stem default-y="-14.5">up</stem>      </note>      <note default-x="122">        <pitch>          <step>C</step>          <octave>5</octave>        </pitch>        <duration>768</duration>        <voice>1</voice>        <type>eighth</type>        <dot/>        <stem default-y="-50">down</stem>      </note>      <note default-x="154">        <pitch>          <step>C</step>          <octave>5</octave>        </pitch>        <duration>256</duration>        <voice>1</voice>        <type>16th</type>        <stem default-y="-50">down</stem>      </note>    </measure>    <!--=======================================================-->    <measure number="25" width="150">      <note default-x="14">        <pitch>          <step>D</step>          <octave>5</octave>        </pitch>        <duration>1024</duration>        <voice>1</voice>        <type>quarter</type>        <stem default-y="-45">down</stem>      </note>      <note default-x="51">        <pitch>          <step>C</step>          <octave>5</octave>        </pitch>        <duration>512</duration>        <voice>1</voice>        <type>eighth</type>        <stem default-y="-50">down</stem>      </note>      <note default-x="75">        <rest/>        <duration>512</duration>        <voice>1</voice>        <type>eighth</type>      </note>      <note default-x="98">        <pitch>          <step>A</step>          <octave>4</octave>        </pitch>        <duration>512</duration>        <voice>1</voice>        <type>eighth</type>        <stem default-y="10">up</stem>      </note>      <note default-x="126">        <pitch>          <step>B</step>          <alter>-1</alter>          <octave>4</octave>        </pitch>        <duration>512</duration>        <voice>1</voice>        <type>eighth</type>        <stem default-y="-55.5">down</stem>      </note>    </measure>    <!--=======================================================-->    <measure number="26" width="221">      <print new-system="yes">        <system-layout>          <system-distance>114</system-distance>        </system-layout>      </print>      <note default-x="77">        <pitch>          <step>C</step>          <octave>5</octave>        </pitch>        <duration>1024</duration>        <voice>1</voice>        <type>quarter</type>        <stem default-y="-50">down</stem>      </note>      <note default-x="114">        <pitch>          <step>D</step>          <octave>5</octave>        </pitch>        <duration>512</duration>        <voice>1</voice>        <type>eighth</type>        <stem default-y="-45">down</stem>      </note>      <note default-x="137">        <pitch>          <step>C</step>          <octave>5</octave>        </pitch>        <duration>512</duration>        <voice>1</voice>        <type>eighth</type>        <stem default-y="-50">down</stem>      </note>      <note default-x="160">        <pitch>          <step>B</step>          <alter>-1</alter>          <octave>4</octave>        </pitch>        <duration>768</duration>        <voice>1</voice>        <type>eighth</type>        <dot/>        <stem default-y="-55.5">down</stem>      </note>      <note default-x="191">        <pitch>          <step>A</step>          <octave>4</octave>        </pitch>        <duration>256</duration>        <voice>1</voice>        <type>16th</type>        <stem default-y="10.5">up</stem>      </note>    </measure>    <!--=======================================================-->    <measure number="27" width="138">      <note default-x="14">        <pitch>          <step>G</step>          <octave>4</octave>        </pitch>        <duration>1536</duration>        <voice>1</voice>        <type>quarter</type>        <dot/>        <stem default-y="5.5">up</stem>      </note>      <note default-x="62">        <pitch>          <step>G</step>          <octave>4</octave>        </pitch>        <duration>512</duration>        <voice>1</voice>        <type>eighth</type>        <stem default-y="5.5">up</stem>      </note>      <note default-x="91">        <pitch>          <step>B</step>          <alter>-1</alter>          <octave>4</octave>        </pitch>        <duration>512</duration>        <voice>1</voice>        <type>eighth</type>        <stem default-y="-55.5">down</stem>      </note>      <note default-x="114">        <pitch>          <step>B</step>          <alter>-1</alter>          <octave>4</octave>        </pitch>        <duration>512</duration>        <voice>1</voice>        <type>eighth</type>        <stem default-y="-55.5">down</stem>      </note>    </measure>    <!--=======================================================-->    <measure number="28" width="226">      <note default-x="14">        <pitch>          <step>C</step>          <octave>5</octave>        </pitch>        <duration>1024</duration>        <voice>1</voice>        <type>quarter</type>        <stem default-y="-50">down</stem>      </note>      <note default-x="53">        <pitch>          <step>E</step>          <alter>-1</alter>          <octave>5</octave>        </pitch>        <duration>1024</duration>        <voice>1</voice>        <type>quarter</type>        <accidental>flat</accidental>        <stem default-y="-40">down</stem>      </note>      <note default-x="91">        <pitch>          <step>D</step>          <octave>5</octave>        </pitch>        <duration>154</duration>        <voice>1</voice>        <type>16th</type>        <time-modification>          <actual-notes>5</actual-notes>          <normal-notes>3</normal-notes>        </time-modification>        <stem default-y="-60">down</stem>        <beam number="1">begin</beam>        <beam number="2">begin</beam>        <notations>          <tuplet number="1" placement="below" type="start"/>        </notations>      </note>      <note default-x="109">        <pitch>          <step>C</step>          <octave>5</octave>        </pitch>        <duration>153</duration>        <voice>1</voice>        <type>16th</type>        <time-modification>          <actual-notes>5</actual-notes>          <normal-notes>3</normal-notes>        </time-modification>        <stem default-y="-61">down</stem>        <beam number="1">continue</beam>        <beam number="2">continue</beam>      </note>      <note default-x="128">        <pitch>          <step>B</step>          <alter>-1</alter>          <octave>4</octave>        </pitch>        <duration>154</duration>        <voice>1</voice>        <type>16th</type>        <time-modification>          <actual-notes>5</actual-notes>          <normal-notes>3</normal-notes>        </time-modification>        <stem default-y="-62">down</stem>        <beam number="1">continue</beam>        <beam number="2">continue</beam>      </note>      <note default-x="146">        <pitch>          <step>A</step>          <octave>4</octave>        </pitch>        <duration>153</duration>        <voice>1</voice>        <type>16th</type>        <time-modification>          <actual-notes>5</actual-notes>          <normal-notes>3</normal-notes>        </time-modification>        <stem default-y="-64">down</stem>        <beam number="1">continue</beam>        <beam number="2">continue</beam>      </note>      <note default-x="164">        <pitch>          <step>G</step>          <octave>4</octave>        </pitch>        <duration>154</duration>        <voice>1</voice>        <type>16th</type>        <time-modification>          <actual-notes>5</actual-notes>          <normal-notes>3</normal-notes>        </time-modification>        <stem default-y="-65">down</stem>        <beam number="1">end</beam>        <beam number="2">end</beam>        <notations>          <tuplet number="1" type="stop"/>        </notations>      </note>      <note default-x="196">        <pitch>          <step>F</step>          <alter>1</alter>          <octave>4</octave>        </pitch>        <duration>256</duration>        <voice>1</voice>        <type>16th</type>        <accidental>sharp</accidental>        <stem default-y="1">up</stem>      </note>    </measure>    <!--=======================================================-->    <measure number="29" width="142">      <note default-x="13">        <pitch>          <step>A</step>          <octave>4</octave>        </pitch>        <duration>1024</duration>        <voice>1</voice>        <type>quarter</type>        <stem default-y="10.5">up</stem>      </note>      <note default-x="51">        <pitch>          <step>G</step>          <octave>4</octave>        </pitch>        <duration>1024</duration>        <voice>1</voice>        <type>quarter</type>        <stem default-y="5.5">up</stem>      </note>      <note default-x="88">        <pitch>          <step>B</step>          <alter>-1</alter>          <octave>4</octave>        </pitch>        <duration>512</duration>        <voice>1</voice>        <type>eighth</type>        <stem default-y="-55.5">down</stem>      </note>      <note default-x="118">        <pitch>          <step>D</step>          <alter>-1</alter>          <octave>5</octave>        </pitch>        <duration>512</duration>        <voice>1</voice>        <type>eighth</type>        <accidental>flat</accidental>        <stem default-y="-45">down</stem>      </note>    </measure>    <!--=======================================================-->    <measure number="30" width="161">      <note default-x="14">        <pitch>          <step>C</step>          <octave>5</octave>        </pitch>        <duration>768</duration>        <voice>1</voice>        <type>eighth</type>        <dot/>        <stem default-y="-50">down</stem>      </note>      <note default-x="45">        <pitch>          <step>G</step>          <octave>4</octave>        </pitch>        <duration>256</duration>        <voice>1</voice>        <type>16th</type>        <stem default-y="5.5">up</stem>      </note>      <note default-x="74">        <pitch>          <step>C</step>          <octave>5</octave>        </pitch>        <duration>1024</duration>        <voice>1</voice>        <type>quarter</type>        <stem default-y="-50">down</stem>      </note>      <note default-x="112">        <pitch>          <step>B</step>          <alter>-1</alter>          <octave>4</octave>        </pitch>        <duration>768</duration>        <voice>1</voice>        <type>eighth</type>        <dot/>        <stem default-y="-55.5">down</stem>      </note>      <note default-x="142">        <pitch>          <step>B</step>          <alter>-1</alter>          <octave>4</octave>        </pitch>        <duration>256</duration>        <voice>1</voice>        <type>16th</type>        <stem default-y="-55.5">down</stem>      </note>    </measure>    <!--=======================================================-->    <measure number="31" width="167">      <note default-x="14">        <pitch>          <step>B</step>          <alter>-1</alter>          <octave>4</octave>        </pitch>        <duration>1024</duration>        <voice>1</voice>        <type>quarter</type>        <stem default-y="-55.5">down</stem>      </note>      <note default-x="56">        <pitch>          <step>A</step>          <alter>-1</alter>          <octave>4</octave>        </pitch>        <duration>512</duration>        <voice>1</voice>        <type>eighth</type>        <accidental>flat</accidental>        <stem default-y="10.5">up</stem>      </note>      <note default-x="83">        <pitch>          <step>A</step>          <alter>-1</alter>          <octave>4</octave>        </pitch>        <duration>512</duration>        <voice>1</voice>        <type>eighth</type>        <stem default-y="10.5">up</stem>      </note>      <note default-x="111">        <pitch>          <step>A</step>          <alter>-1</alter>          <octave>4</octave>        </pitch>        <duration>512</duration>        <voice>1</voice>        <type>eighth</type>        <stem default-y="10.5">up</stem>      </note>      <note default-x="139">        <pitch>          <step>G</step>          <octave>4</octave>        </pitch>        <duration>512</duration>        <voice>1</voice>        <type>eighth</type>        <stem default-y="5.5">up</stem>      </note>    </measure>    <!--=======================================================-->    <measure number="32" width="231">      <print new-system="yes">        <system-layout>          <system-distance>114</system-distance>        </system-layout>      </print>      <direction placement="above">        <direction-type>          <dynamics default-x="78" default-y="25">            <p/>          </dynamics>        </direction-type>        <sound dynamics="54"/>      </direction>      <note default-x="77">        <pitch>          <step>F</step>          <octave>4</octave>        </pitch>        <duration>1536</duration>        <voice>1</voice>        <type>quarter</type>        <dot/>        <stem default-y="0">up</stem>      </note>      <note default-x="131">        <pitch>          <step>F</step>          <octave>4</octave>        </pitch>        <duration>512</duration>        <voice>1</voice>        <type>eighth</type>        <stem default-y="0">up</stem>      </note>      <note default-x="161">        <pitch>          <step>F</step>          <octave>4</octave>        </pitch>        <duration>768</duration>        <voice>1</voice>        <type>eighth</type>        <dot/>        <stem default-y="0">up</stem>      </note>      <note default-x="201">        <pitch>          <step>E</step>          <octave>4</octave>        </pitch>        <duration>256</duration>        <voice>1</voice>        <type>16th</type>        <stem default-y="-4.5">up</stem>      </note>    </measure>    <!--=======================================================-->    <measure number="33" width="115">      <note default-x="13">        <pitch>          <step>G</step>          <octave>4</octave>        </pitch>        <duration>2048</duration>        <voice>1</voice>        <type>half</type>        <stem default-y="6">up</stem>        <notations>          <slur number="1" placement="below" type="start"/>        </notations>      </note>      <note default-x="76">        <pitch>          <step>C</step>          <octave>4</octave>        </pitch>        <duration>1024</duration>        <voice>1</voice>        <type>quarter</type>        <stem default-y="-14">up</stem>        <notations>          <slur number="1" type="stop"/>        </notations>      </note>    </measure>    <!--=======================================================-->    <measure number="34" width="205">      <note default-x="16">        <pitch>          <step>C</step>          <octave>4</octave>        </pitch>        <duration>512</duration>        <voice>1</voice>        <type>eighth</type>        <stem default-y="-14">up</stem>      </note>      <note default-x="56">        <pitch>          <step>D</step>          <alter>-1</alter>          <octave>5</octave>        </pitch>        <duration>1024</duration>        <voice>1</voice>        <type>quarter</type>        <accidental>flat</accidental>        <stem default-y="-45">down</stem>      </note>      <note default-x="100">        <pitch>          <step>C</step>          <octave>5</octave>        </pitch>        <duration>512</duration>        <voice>1</voice>        <type>eighth</type>        <stem default-y="-50.5">down</stem>      </note>      <note default-x="134">        <pitch>          <step>A</step>          <alter>-1</alter>          <octave>4</octave>        </pitch>        <duration>512</duration>        <voice>1</voice>        <type>eighth</type>        <accidental>flat</accidental>        <stem default-y="10.5">up</stem>      </note>      <note default-x="173">        <pitch>          <step>F</step>          <alter>-1</alter>          <octave>4</octave>        </pitch>        <duration>512</duration>        <voice>1</voice>        <type>eighth</type>        <accidental>flat</accidental>        <stem default-y="0">up</stem>      </note>    </measure>    <!--=======================================================-->    <measure number="35" width="156">      <note default-x="14">        <pitch>          <step>G</step>          <octave>4</octave>        </pitch>        <duration>1024</duration>        <voice>1</voice>        <type>quarter</type>        <stem default-y="6">up</stem>      </note>      <note default-x="32">        <grace/>        <pitch>          <step>B</step>          <alter>-1</alter>          <octave>4</octave>        </pitch>        <voice>1</voice>        <type>16th</type>        <stem default-y="1">up</stem>        <beam number="1">begin</beam>        <beam number="2">begin</beam>      </note>      <note default-x="45">        <grace/>        <pitch>          <step>A</step>          <octave>4</octave>        </pitch>        <voice>1</voice>        <type>16th</type>        <stem default-y="-2">up</stem>        <beam number="1">end</beam>        <beam number="2">end</beam>      </note>      <note default-x="57">        <pitch>          <step>G</step>          <octave>4</octave>        </pitch>        <duration>512</duration>        <voice>1</voice>        <type>eighth</type>        <stem default-y="6">up</stem>      </note>      <note default-x="85">        <rest/>        <duration>512</duration>        <voice>1</voice>        <type>eighth</type>      </note>      <note default-x="112">        <pitch>          <step>C</step>          <octave>5</octave>        </pitch>        <duration>1024</duration>        <voice>1</voice>        <type>quarter</type>        <stem default-y="-50.5">down</stem>      </note>    </measure>    <!--=======================================================-->    <measure number="36" width="346">      <note default-x="25">        <pitch>          <step>B</step>          <octave>4</octave>        </pitch>        <duration>512</duration>        <voice>1</voice>        <type>eighth</type>        <accidental>natural</accidental>        <stem default-y="-55">down</stem>      </note>      <note default-x="60">        <pitch>          <step>A</step>          <alter>-1</alter>          <octave>5</octave>        </pitch>        <duration>1024</duration>        <voice>1</voice>        <type>quarter</type>        <accidental>flat</accidental>        <stem default-y="-25">down</stem>        <notations>          <fermata default-x="-5" default-y="25" type="upright"/>        </notations>      </note>      <note default-x="106">        <pitch>          <step>A</step>          <alter>-1</alter>          <octave>5</octave>        </pitch>        <duration>128</duration>        <voice>1</voice>        <type>16th</type>        <time-modification>          <actual-notes>8</actual-notes>          <normal-notes>4</normal-notes>        </time-modification>        <stem default-y="-30">down</stem>        <beam number="1">begin</beam>        <beam number="2">begin</beam>        <notations>          <tuplet number="1" placement="below" type="start"/>        </notations>      </note>      <note default-x="127">        <pitch>          <step>G</step>          <octave>5</octave>        </pitch>        <duration>128</duration>        <voice>1</voice>        <type>16th</type>        <time-modification>          <actual-notes>8</actual-notes>          <normal-notes>4</normal-notes>        </time-modification>        <stem default-y="-30.5">down</stem>        <beam number="1">continue</beam>        <beam number="2">continue</beam>      </note>      <note default-x="147">        <pitch>          <step>F</step>          <octave>5</octave>        </pitch>        <duration>128</duration>        <voice>1</voice>        <type>16th</type>        <time-modification>          <actual-notes>8</actual-notes>          <normal-notes>4</normal-notes>        </time-modification>        <stem default-y="-31.5">down</stem>        <beam number="1">continue</beam>        <beam number="2">continue</beam>      </note>      <note default-x="177">        <pitch>          <step>E</step>          <alter>-1</alter>          <octave>5</octave>        </pitch>        <duration>128</duration>        <voice>1</voice>        <type>16th</type>        <accidental>flat</accidental>        <time-modification>          <actual-notes>8</actual-notes>          <normal-notes>4</normal-notes>        </time-modification>        <stem default-y="-32">down</stem>        <beam number="1">end</beam>        <beam number="2">end</beam>      </note>      <note default-x="206">        <pitch>          <step>D</step>          <alter>-1</alter>          <octave>5</octave>        </pitch>        <duration>128</duration>        <voice>1</voice>        <type>16th</type>        <accidental>flat</accidental>        <time-modification>          <actual-notes>8</actual-notes>          <normal-notes>4</normal-notes>        </time-modification>        <stem default-y="-55">down</stem>        <beam number="1">begin</beam>        <beam number="2">begin</beam>      </note>      <note default-x="225">        <pitch>          <step>C</step>          <octave>5</octave>        </pitch>        <duration>128</duration>        <voice>1</voice>        <type>16th</type>        <time-modification>          <actual-notes>8</actual-notes>          <normal-notes>4</normal-notes>        </time-modification>        <stem default-y="-57">down</stem>        <beam number="1">continue</beam>        <beam number="2">continue</beam>      </note>      <note default-x="244">        <pitch>          <step>B</step>          <octave>4</octave>        </pitch>        <duration>128</duration>        <voice>1</voice>        <type>16th</type>        <time-modification>          <actual-notes>8</actual-notes>          <normal-notes>4</normal-notes>        </time-modification>        <stem default-y="-58">down</stem>        <beam number="1">continue</beam>        <beam number="2">continue</beam>      </note>      <note default-x="264">        <pitch>          <step>A</step>          <octave>4</octave>        </pitch>        <duration>128</duration>        <voice>1</voice>        <type>16th</type>        <time-modification>          <actual-notes>8</actual-notes>          <normal-notes>4</normal-notes>        </time-modification>        <stem default-y="-60">down</stem>        <beam number="1">end</beam>        <beam number="2">end</beam>        <notations>          <tuplet number="1" type="stop"/>        </notations>      </note>      <note default-x="284">        <pitch>          <step>G</step>          <octave>4</octave>        </pitch>        <duration>256</duration>        <voice>1</voice>        <type>16th</type>        <stem default-y="6">up</stem>      </note>      <note default-x="315">        <pitch>          <step>F</step>          <octave>4</octave>        </pitch>        <duration>256</duration>        <voice>1</voice>        <type>16th</type>        <stem default-y="0">up</stem>      </note>    </measure>    <!--=======================================================-->    <measure number="37" width="241">      <print new-system="yes">        <system-layout>          <system-distance>114</system-distance>        </system-layout>      </print>      <note default-x="77">        <pitch>          <step>E</step>          <octave>4</octave>        </pitch>        <duration>768</duration>        <voice>1</voice>        <type>eighth</type>        <dot/>        <stem default-y="0">up</stem>        <beam number="1">begin</beam>      </note>      <note default-x="107">        <pitch>          <step>G</step>          <octave>4</octave>        </pitch>        <duration>256</duration>        <voice>1</voice>        <type>16th</type>        <stem default-y="5">up</stem>        <beam number="1">end</beam>        <beam number="2">backward hook</beam>      </note>      <note default-x="137">        <pitch>          <step>B</step>          <octave>4</octave>        </pitch>        <duration>512</duration>        <voice>1</voice>        <type>eighth</type>        <accidental>natural</accidental>        <stem default-y="-55">down</stem>      </note>      <note default-x="159">        <pitch>          <step>C</step>          <octave>5</octave>        </pitch>        <duration>512</duration>        <voice>1</voice>        <type>eighth</type>        <stem default-y="-50">down</stem>      </note>      <note default-x="189">        <pitch>          <step>B</step>          <alter>-1</alter>          <octave>4</octave>        </pitch>        <duration>512</duration>        <voice>1</voice>        <type>eighth</type>        <accidental>flat</accidental>        <stem default-y="-55">down</stem>      </note>      <note default-x="212">        <pitch>          <step>G</step>          <octave>4</octave>        </pitch>        <duration>512</duration>        <voice>1</voice>        <type>eighth</type>        <stem default-y="5">up</stem>      </note>    </measure>    <!--=======================================================-->    <measure number="38" width="164">      <note default-x="13">        <pitch>          <step>F</step>          <octave>4</octave>        </pitch>        <duration>1024</duration>        <voice>1</voice>        <type>quarter</type>        <stem default-y="0.5">up</stem>      </note>      <note default-x="53">        <pitch>          <step>G</step>          <octave>4</octave>        </pitch>        <duration>512</duration>        <voice>1</voice>        <type>eighth</type>        <stem default-y="5">up</stem>      </note>      <note default-x="81">        <pitch>          <step>A</step>          <octave>4</octave>        </pitch>        <duration>512</duration>        <voice>1</voice>        <type>eighth</type>        <stem default-y="11">up</stem>      </note>      <note default-x="108">        <pitch>          <step>G</step>          <octave>4</octave>        </pitch>        <duration>512</duration>        <voice>1</voice>        <type>eighth</type>        <stem default-y="5">up</stem>      </note>      <note default-x="136">        <pitch>          <step>F</step>          <octave>4</octave>        </pitch>        <duration>512</duration>        <voice>1</voice>        <type>eighth</type>        <stem default-y="0.5">up</stem>      </note>    </measure>    <!--=======================================================-->    <measure number="39" width="110">      <note default-x="14">        <pitch>          <step>C</step>          <octave>5</octave>        </pitch>        <duration>2048</duration>        <voice>1</voice>        <type>half</type>        <stem default-y="-50">down</stem>      </note>      <note default-x="73">        <pitch>          <step>C</step>          <octave>5</octave>        </pitch>        <duration>1024</duration>        <voice>1</voice>        <type>quarter</type>        <stem default-y="-50">down</stem>      </note>    </measure>    <!--=======================================================-->    <measure number="40" width="152">      <note default-x="14">        <pitch>          <step>D</step>          <octave>5</octave>        </pitch>        <duration>1024</duration>        <voice>1</voice>        <type>quarter</type>        <stem default-y="-45">down</stem>      </note>      <note default-x="51">        <pitch>          <step>C</step>          <octave>5</octave>        </pitch>        <duration>512</duration>        <voice>1</voice>        <type>eighth</type>        <stem default-y="-50">down</stem>      </note>      <note default-x="74">        <pitch>          <step>B</step>          <alter>-1</alter>          <octave>4</octave>        </pitch>        <duration>512</duration>        <voice>1</voice>        <type>eighth</type>        <stem default-y="-55">down</stem>      </note>      <note default-x="97">        <pitch>          <step>G</step>          <octave>4</octave>        </pitch>        <duration>512</duration>        <voice>1</voice>        <type>eighth</type>        <stem default-y="5">up</stem>      </note>      <note default-x="124">        <pitch>          <step>E</step>          <octave>4</octave>        </pitch>        <duration>512</duration>        <voice>1</voice>        <type>eighth</type>        <stem default-y="-4.5">up</stem>      </note>    </measure>    <!--=======================================================-->    <measure number="41" width="112">      <note default-x="16">        <pitch>          <step>C</step>          <octave>4</octave>        </pitch>        <duration>2048</duration>        <voice>1</voice>        <type>half</type>        <stem default-y="-15">up</stem>      </note>      <note default-x="75">        <rest/>        <duration>1024</duration>        <voice>1</voice>        <type>quarter</type>      </note>    </measure>    <!--=======================================================-->    <measure number="42" width="164">      <note default-x="13">        <pitch>          <step>F</step>          <octave>4</octave>        </pitch>        <duration>1024</duration>        <voice>1</voice>        <type>quarter</type>        <stem default-y="0.5">up</stem>      </note>      <note default-x="53">        <pitch>          <step>G</step>          <octave>4</octave>        </pitch>        <duration>512</duration>        <voice>1</voice>        <type>eighth</type>        <stem default-y="5">up</stem>      </note>      <note default-x="81">        <pitch>          <step>A</step>          <octave>4</octave>        </pitch>        <duration>512</duration>        <voice>1</voice>        <type>eighth</type>        <stem default-y="11">up</stem>      </note>      <note default-x="109">        <pitch>          <step>G</step>          <octave>4</octave>        </pitch>        <duration>512</duration>        <voice>1</voice>        <type>eighth</type>        <stem default-y="5">up</stem>      </note>      <note default-x="136">        <pitch>          <step>F</step>          <octave>4</octave>        </pitch>        <duration>512</duration>        <voice>1</voice>        <type>eighth</type>        <stem default-y="0.5">up</stem>      </note>    </measure>    <!--=======================================================-->    <measure number="43" width="110">      <note default-x="14">        <pitch>          <step>C</step>          <octave>5</octave>        </pitch>        <duration>2048</duration>        <voice>1</voice>        <type>half</type>        <stem default-y="-50">down</stem>      </note>      <note default-x="73">        <pitch>          <step>C</step>          <octave>5</octave>        </pitch>        <duration>1024</duration>        <voice>1</voice>        <type>quarter</type>        <stem default-y="-50">down</stem>      </note>    </measure>    <!--=======================================================-->    <measure number="44" width="215">      <print new-system="yes">        <system-layout>          <system-distance>114</system-distance>        </system-layout>      </print>      <note default-x="77">        <pitch>          <step>E</step>          <octave>5</octave>        </pitch>        <duration>1024</duration>        <voice>1</voice>        <type>quarter</type>        <stem default-y="-40.5">down</stem>        <notations>          <slur bezier-x="43" bezier-y="24" default-x="7" default-y="5" number="1" placement="above" type="start"/>        </notations>      </note>      <note default-x="113">        <pitch>          <step>D</step>          <octave>5</octave>        </pitch>        <duration>512</duration>        <voice>1</voice>        <type>eighth</type>        <stem default-y="-45">down</stem>      </note>      <note default-x="135">        <pitch>          <step>C</step>          <octave>5</octave>        </pitch>        <duration>512</duration>        <voice>1</voice>        <type>eighth</type>        <stem default-y="-50">down</stem>      </note>      <note default-x="157">        <pitch>          <step>B</step>          <alter>-1</alter>          <octave>4</octave>        </pitch>        <duration>768</duration>        <voice>1</voice>        <type>eighth</type>        <dot/>        <stem default-y="-55">down</stem>      </note>      <note default-x="185">        <pitch>          <step>G</step>          <octave>4</octave>        </pitch>        <duration>256</duration>        <voice>1</voice>        <type>16th</type>        <stem default-y="5.5">up</stem>        <notations>          <slur bezier-x="-41" bezier-y="26" default-x="66" default-y="1" number="1" type="stop"/>        </notations>      </note>    </measure>    <!--=======================================================-->    <measure number="45" width="90">      <note default-x="14">        <pitch>          <step>F</step>          <octave>4</octave>        </pitch>        <duration>3072</duration>        <voice>1</voice>        <type>half</type>        <dot/>        <stem default-y="0.5">up</stem>      </note>    </measure>    <!--=======================================================-->    <measure number="46" width="143">      <note default-x="13">        <pitch>          <step>A</step>          <octave>4</octave>        </pitch>        <duration>1024</duration>        <voice>1</voice>        <type>quarter</type>        <stem default-y="10">up</stem>      </note>      <note default-x="49">        <pitch>          <step>B</step>          <octave>4</octave>        </pitch>        <duration>512</duration>        <voice>1</voice>        <type>eighth</type>        <accidental>natural</accidental>        <stem default-y="-55">down</stem>      </note>      <note default-x="71">        <pitch>          <step>C</step>          <octave>5</octave>        </pitch>        <duration>512</duration>        <voice>1</voice>        <type>eighth</type>        <stem default-y="-50">down</stem>      </note>      <note default-x="92">        <pitch>          <step>B</step>          <octave>4</octave>        </pitch>        <duration>512</duration>        <voice>1</voice>        <type>eighth</type>        <stem default-y="-55">down</stem>      </note>      <note default-x="115">        <pitch>          <step>A</step>          <octave>4</octave>        </pitch>        <duration>512</duration>        <voice>1</voice>        <type>eighth</type>        <stem default-y="10">up</stem>      </note>    </measure>    <!--=======================================================-->    <measure number="47" width="107">      <note default-x="14">        <pitch>          <step>E</step>          <octave>5</octave>        </pitch>        <duration>2048</duration>        <voice>1</voice>        <type>half</type>        <stem default-y="-40.5">down</stem>      </note>      <note default-x="71">        <pitch>          <step>E</step>          <octave>5</octave>        </pitch>        <duration>1024</duration>        <voice>1</voice>        <type>quarter</type>        <stem default-y="-40.5">down</stem>      </note>    </measure>    <!--=======================================================-->    <measure number="48" width="157">      <note default-x="13">        <pitch>          <step>A</step>          <octave>4</octave>        </pitch>        <duration>1024</duration>        <voice>1</voice>        <type>quarter</type>        <stem default-y="10">up</stem>      </note>      <note default-x="49">        <pitch>          <step>B</step>          <alter>-1</alter>          <octave>4</octave>        </pitch>        <duration>512</duration>        <voice>1</voice>        <type>eighth</type>        <stem default-y="-55">down</stem>      </note>      <note default-x="71">        <pitch>          <step>C</step>          <octave>5</octave>        </pitch>        <duration>512</duration>        <voice>1</voice>        <type>eighth</type>        <stem default-y="-50">down</stem>      </note>      <note default-x="93">        <pitch>          <step>C</step>          <octave>5</octave>        </pitch>        <duration>256</duration>        <voice>1</voice>        <type>16th</type>        <stem default-y="-50">down</stem>        <beam number="1">begin</beam>        <beam number="2">begin</beam>      </note>      <note default-x="111">        <pitch>          <step>B</step>          <alter>-1</alter>          <octave>4</octave>        </pitch>        <duration>256</duration>        <voice>1</voice>        <type>16th</type>        <stem default-y="-55">down</stem>        <beam number="1">end</beam>        <beam number="2">end</beam>      </note>      <note default-x="129">        <pitch>          <step>G</step>          <octave>4</octave>        </pitch>        <duration>512</duration>        <voice>1</voice>        <type>eighth</type>        <stem default-y="5.5">up</stem>      </note>    </measure>    <!--=======================================================-->    <measure number="49" width="90">      <note default-x="14">        <pitch>          <step>E</step>          <octave>4</octave>        </pitch>        <duration>3072</duration>        <tie type="start"/>        <voice>1</voice>        <type>half</type>        <dot/>        <stem default-y="-4">up</stem>        <notations>          <tied type="start"/>        </notations>      </note>    </measure>    <!--=======================================================-->    <measure number="50" width="160">      <note default-x="13">        <pitch>          <step>F</step>          <octave>4</octave>        </pitch>        <duration>1024</duration>        <voice>1</voice>        <type>quarter</type>        <stem default-y="0.5">up</stem>      </note>      <note default-x="49">        <pitch>          <step>G</step>          <octave>4</octave>        </pitch>        <duration>512</duration>        <voice>1</voice>        <type>eighth</type>        <stem default-y="5.5">up</stem>      </note>      <note default-x="77">        <pitch>          <step>A</step>          <octave>4</octave>        </pitch>        <duration>512</duration>        <voice>1</voice>        <type>eighth</type>        <stem default-y="10">up</stem>      </note>      <note default-x="105">        <pitch>          <step>G</step>          <octave>4</octave>        </pitch>        <duration>512</duration>        <voice>1</voice>        <type>eighth</type>        <stem default-y="5.5">up</stem>      </note>      <note default-x="132">        <pitch>          <step>F</step>          <octave>4</octave>        </pitch>        <duration>512</duration>        <voice>1</voice>        <type>eighth</type>        <stem default-y="0.5">up</stem>      </note>    </measure>    <!--=======================================================-->    <measure number="51" width="91">      <note default-x="14">        <pitch>          <step>C</step>          <octave>5</octave>        </pitch>        <duration>3072</duration>        <voice>1</voice>        <type>half</type>        <dot/>        <stem default-y="-50">down</stem>        <notations>          <slur number="1" placement="above" type="start"/>          <slur default-x="151" default-y="-1" number="1" type="stop"/>        </notations>      </note>    </measure>    <!--=======================================================-->    <measure number="52" width="291">      <print new-page="yes" page-number="2"/>      <note default-x="77">        <pitch>          <step>D</step>          <octave>5</octave>        </pitch>        <duration>1024</duration>        <voice>1</voice>        <type>quarter</type>        <stem default-y="-45.5">down</stem>      </note>      <note default-x="139">        <pitch>          <step>C</step>          <octave>5</octave>        </pitch>        <duration>512</duration>        <voice>1</voice>        <type>eighth</type>        <stem default-y="-50">down</stem>      </note>      <note default-x="177">        <pitch>          <step>B</step>          <alter>-1</alter>          <octave>4</octave>        </pitch>        <duration>512</duration>        <voice>1</voice>        <type>eighth</type>        <stem default-y="-55">down</stem>      </note>      <note default-x="214">        <pitch>          <step>G</step>          <octave>4</octave>        </pitch>        <duration>512</duration>        <voice>1</voice>        <type>eighth</type>        <stem default-y="5">up</stem>      </note>      <note default-x="252">        <pitch>          <step>E</step>          <octave>4</octave>        </pitch>        <duration>512</duration>        <voice>1</voice>        <type>eighth</type>        <stem default-y="-4.5">up</stem>      </note>    </measure>    <!--=======================================================-->    <measure number="53" width="141">      <note default-x="16">        <pitch>          <step>C</step>          <octave>4</octave>        </pitch>        <duration>3072</duration>        <voice>1</voice>        <type>half</type>        <dot/>        <stem default-y="-15">up</stem>      </note>    </measure>    <!--=======================================================-->    <measure number="54" width="260">      <note default-x="14">        <pitch>          <step>F</step>          <octave>4</octave>        </pitch>        <duration>1024</duration>        <voice>1</voice>        <type>quarter</type>        <stem default-y="0.5">up</stem>      </note>      <note default-x="83">        <pitch>          <step>G</step>          <octave>4</octave>        </pitch>        <duration>512</duration>        <voice>1</voice>        <type>eighth</type>        <stem default-y="5">up</stem>      </note>      <note default-x="128">        <pitch>          <step>A</step>          <octave>4</octave>        </pitch>        <duration>512</duration>        <voice>1</voice>        <type>eighth</type>        <stem default-y="11">up</stem>      </note>      <note default-x="172">        <pitch>          <step>G</step>          <octave>4</octave>        </pitch>        <duration>768</duration>        <voice>1</voice>        <type>eighth</type>        <dot/>        <stem default-y="5">up</stem>      </note>      <note default-x="231">        <pitch>          <step>F</step>          <octave>4</octave>        </pitch>        <duration>256</duration>        <voice>1</voice>        <type>16th</type>        <stem default-y="0.5">up</stem>      </note>    </measure>    <!--=======================================================-->    <measure number="55" width="329">      <note default-x="14">        <pitch>          <step>F</step>          <octave>5</octave>        </pitch>        <duration>1024</duration>        <tie type="start"/>        <voice>1</voice>        <type>quarter</type>        <stem default-y="-35">down</stem>        <notations>          <tied type="start"/>        </notations>      </note>      <note default-x="92">        <pitch>          <step>F</step>          <octave>5</octave>        </pitch>        <duration>256</duration>        <tie type="stop"/>        <voice>1</voice>        <type>16th</type>        <stem default-y="-50">down</stem>        <beam number="1">begin</beam>        <beam number="2">begin</beam>        <notations>          <tied type="stop"/>        </notations>      </note>      <note default-x="121">        <pitch>          <step>E</step>          <octave>5</octave>        </pitch>        <duration>256</duration>        <voice>1</voice>        <type>16th</type>        <stem default-y="-50">down</stem>        <beam number="1">continue</beam>        <beam number="2">continue</beam>      </note>      <note default-x="151">        <pitch>          <step>F</step>          <octave>5</octave>        </pitch>        <duration>256</duration>        <voice>1</voice>        <type>16th</type>        <stem default-y="-50">down</stem>        <beam number="1">continue</beam>        <beam number="2">continue</beam>      </note>      <note default-x="180">        <pitch>          <step>C</step>          <octave>5</octave>        </pitch>        <duration>256</duration>        <voice>1</voice>        <type>16th</type>        <stem default-y="-50">down</stem>        <beam number="1">continue</beam>        <beam number="2">continue</beam>      </note>      <note default-x="210">        <pitch>          <step>D</step>          <octave>5</octave>        </pitch>        <duration>256</duration>        <voice>1</voice>        <type>16th</type>        <stem default-y="-50">down</stem>        <beam number="1">continue</beam>        <beam number="2">continue</beam>      </note>      <note default-x="239">        <pitch>          <step>C</step>          <octave>5</octave>        </pitch>        <duration>256</duration>        <voice>1</voice>        <type>16th</type>        <stem default-y="-50">down</stem>        <beam number="1">end</beam>        <beam number="2">end</beam>      </note>      <note default-x="269">        <pitch>          <step>A</step>          <octave>4</octave>        </pitch>        <duration>256</duration>        <voice>1</voice>        <type>16th</type>        <stem default-y="11">up</stem>      </note>      <note default-x="299">        <pitch>          <step>F</step>          <octave>4</octave>        </pitch>        <duration>256</duration>        <voice>1</voice>        <type>16th</type>        <stem default-y="0.5">up</stem>      </note>    </measure>    <!--=======================================================-->    <measure number="56" width="615">      <print new-system="yes">        <system-layout>          <system-distance>114</system-distance>        </system-layout>      </print>      <note default-x="77">        <pitch>          <step>E</step>          <octave>4</octave>        </pitch>        <duration>256</duration>        <voice>1</voice>        <type>16th</type>        <stem default-y="0">up</stem>        <beam number="1">begin</beam>        <beam number="2">begin</beam>      </note>      <note default-x="108">        <pitch>          <step>G</step>          <octave>4</octave>        </pitch>        <duration>256</duration>        <voice>1</voice>        <type>16th</type>        <stem default-y="5">up</stem>        <beam number="1">end</beam>        <beam number="2">end</beam>      </note>      <note default-x="140">        <pitch>          <step>C</step>          <octave>5</octave>        </pitch>        <duration>256</duration>        <voice>1</voice>        <type>16th</type>        <stem default-y="-50">down</stem>        <beam number="1">begin</beam>        <beam number="2">begin</beam>      </note>      <note default-x="172">        <pitch>          <step>E</step>          <octave>5</octave>        </pitch>        <duration>256</duration>        <voice>1</voice>        <type>16th</type>        <stem default-y="-45">down</stem>        <beam number="1">end</beam>        <beam number="2">end</beam>      </note>      <note default-x="203">        <pitch>          <step>G</step>          <octave>5</octave>        </pitch>        <duration>256</duration>        <voice>1</voice>        <type>16th</type>        <stem default-y="-30">down</stem>      </note>      <note default-x="238">        <pitch>          <step>B</step>          <alter>-1</alter>          <octave>5</octave>        </pitch>        <duration>1024</duration>        <tie type="start"/>        <voice>1</voice>        <type>quarter</type>        <stem default-y="-20.5">down</stem>        <notations>          <tied type="start"/>        </notations>      </note>      <note default-x="314">        <pitch>          <step>B</step>          <alter>-1</alter>          <octave>5</octave>        </pitch>        <duration>128</duration>        <tie type="stop"/>        <voice>1</voice>        <type>32nd</type>        <stem default-y="-82.5">down</stem>        <beam number="1">begin</beam>        <beam number="2">begin</beam>        <beam number="3">begin</beam>        <notations>          <tied type="stop"/>        </notations>      </note>      <note default-x="344">        <pitch>          <step>A</step>          <octave>5</octave>        </pitch>        <duration>30</duration>        <voice>1</voice>        <type>32nd</type>        <time-modification>          <actual-notes>13</actual-notes>          <normal-notes>3</normal-notes>        </time-modification>        <stem default-y="-83">down</stem>        <beam number="1">continue</beam>        <beam number="2">continue</beam>        <beam number="3">continue</beam>        <notations>          <tuplet number="1" placement="below" type="start"/>        </notations>      </note>      <note default-x="365">        <pitch>          <step>G</step>          <octave>5</octave>        </pitch>        <duration>29</duration>        <voice>1</voice>        <type>32nd</type>        <time-modification>          <actual-notes>13</actual-notes>          <normal-notes>3</normal-notes>        </time-modification>        <stem default-y="-83">down</stem>        <beam number="1">continue</beam>        <beam number="2">continue</beam>        <beam number="3">continue</beam>      </note>      <note default-x="383">        <pitch>          <step>F</step>          <octave>5</octave>        </pitch>        <duration>30</duration>        <voice>1</voice>        <type>32nd</type>        <time-modification>          <actual-notes>13</actual-notes>          <normal-notes>3</normal-notes>        </time-modification>        <stem default-y="-84">down</stem>        <beam number="1">continue</beam>        <beam number="2">continue</beam>        <beam number="3">continue</beam>      </note>      <note default-x="401">        <pitch>          <step>E</step>          <octave>5</octave>        </pitch>        <duration>29</duration>        <voice>1</voice>        <type>32nd</type>        <time-modification>          <actual-notes>13</actual-notes>          <normal-notes>3</normal-notes>        </time-modification>        <stem default-y="-84">down</stem>        <beam number="1">continue</beam>        <beam number="2">continue</beam>        <beam number="3">continue</beam>      </note>      <note default-x="420">        <pitch>          <step>D</step>          <octave>5</octave>        </pitch>        <duration>30</duration>        <voice>1</voice>        <type>32nd</type>        <time-modification>          <actual-notes>13</actual-notes>          <normal-notes>3</normal-notes>        </time-modification>        <stem default-y="-85">down</stem>        <beam number="1">continue</beam>        <beam number="2">continue</beam>        <beam number="3">continue</beam>      </note>      <note default-x="438">        <pitch>          <step>C</step>          <octave>5</octave>        </pitch>        <duration>29</duration>        <voice>1</voice>        <type>32nd</type>        <time-modification>          <actual-notes>13</actual-notes>          <normal-notes>3</normal-notes>        </time-modification>        <stem default-y="-85">down</stem>        <beam number="1">continue</beam>        <beam number="2">continue</beam>        <beam number="3">continue</beam>      </note>      <note default-x="457">        <pitch>          <step>B</step>          <alter>-1</alter>          <octave>4</octave>        </pitch>        <duration>30</duration>        <voice>1</voice>        <type>32nd</type>        <time-modification>          <actual-notes>13</actual-notes>          <normal-notes>3</normal-notes>        </time-modification>        <stem default-y="-85">down</stem>        <beam number="1">continue</beam>        <beam number="2">continue</beam>        <beam number="3">continue</beam>      </note>      <note default-x="475">        <pitch>          <step>A</step>          <octave>4</octave>        </pitch>        <duration>29</duration>        <voice>1</voice>        <type>32nd</type>        <time-modification>          <actual-notes>13</actual-notes>          <normal-notes>3</normal-notes>        </time-modification>        <stem default-y="-86">down</stem>        <beam number="1">continue</beam>        <beam number="2">continue</beam>        <beam number="3">continue</beam>      </note>      <note default-x="494">        <pitch>          <step>G</step>          <octave>4</octave>        </pitch>        <duration>30</duration>        <voice>1</voice>        <type>32nd</type>        <time-modification>          <actual-notes>13</actual-notes>          <normal-notes>3</normal-notes>        </time-modification>        <stem default-y="-86">down</stem>        <beam number="1">continue</beam>        <beam number="2">continue</beam>        <beam number="3">continue</beam>      </note>      <note default-x="512">        <pitch>          <step>F</step>          <octave>4</octave>        </pitch>        <duration>29</duration>        <voice>1</voice>        <type>32nd</type>        <time-modification>          <actual-notes>13</actual-notes>          <normal-notes>3</normal-notes>        </time-modification>        <stem default-y="-87">down</stem>        <beam number="1">continue</beam>        <beam number="2">continue</beam>        <beam number="3">continue</beam>      </note>      <note default-x="531">        <pitch>          <step>E</step>          <octave>4</octave>        </pitch>        <duration>30</duration>        <voice>1</voice>        <type>32nd</type>        <time-modification>          <actual-notes>13</actual-notes>          <normal-notes>3</normal-notes>        </time-modification>        <stem default-y="-87">down</stem>        <beam number="1">continue</beam>        <beam number="2">continue</beam>        <beam number="3">continue</beam>      </note>      <note default-x="549">        <pitch>          <step>D</step>          <octave>4</octave>        </pitch>        <duration>29</duration>        <voice>1</voice>        <type>32nd</type>        <time-modification>          <actual-notes>13</actual-notes>          <normal-notes>3</normal-notes>        </time-modification>        <stem default-y="-87">down</stem>        <beam number="1">end</beam>        <beam number="2">end</beam>        <beam number="3">end</beam>      </note>      <note default-x="567">        <rest/>        <duration>30</duration>        <voice>1</voice>        <time-modification>          <actual-notes>13</actual-notes>          <normal-notes>3</normal-notes>        </time-modification>        <notations>          <tuplet number="1" type="stop"/>        </notations>      </note>    </measure>    <!--=======================================================-->    <measure number="57" width="250">      <note default-x="17">        <pitch>          <step>C</step>          <octave>4</octave>        </pitch>        <duration>512</duration>        <voice>1</voice>        <type>eighth</type>        <stem default-y="-14.5">up</stem>      </note>      <note default-x="54">        <pitch>          <step>D</step>          <octave>5</octave>        </pitch>        <duration>1024</duration>        <voice>1</voice>        <type>quarter</type>        <stem default-y="-45">down</stem>        <notations>          <fermata default-x="-5" default-y="5" type="upright"/>        </notations>      </note>      <note default-x="111">        <pitch>          <step>A</step>          <octave>4</octave>        </pitch>        <duration>512</duration>        <voice>1</voice>        <type>eighth</type>        <stem default-y="10">up</stem>      </note>      <note default-x="149">        <pitch>          <step>B</step>          <alter>-1</alter>          <octave>4</octave>        </pitch>        <duration>256</duration>        <voice>1</voice>        <type>16th</type>        <stem default-y="15">up</stem>        <beam number="1">begin</beam>        <beam number="2">begin</beam>        <notations>          <ornaments>            <trill-mark default-x="8" default-y="30" placement="above"/>          </ornaments>        </notations>      </note>      <note default-x="173">        <pitch>          <step>A</step>          <octave>4</octave>        </pitch>        <duration>256</duration>        <voice>1</voice>        <type>16th</type>        <stem default-y="15">up</stem>        <beam number="1">continue</beam>        <beam number="2">continue</beam>      </note>      <note default-x="197">        <pitch>          <step>B</step>          <alter>-1</alter>          <octave>4</octave>        </pitch>        <duration>256</duration>        <voice>1</voice>        <type>16th</type>        <stem default-y="15">up</stem>        <beam number="1">end</beam>        <beam number="2">end</beam>      </note>      <note default-x="220">        <pitch>          <step>G</step>          <octave>4</octave>        </pitch>        <duration>256</duration>        <voice>1</voice>        <type>16th</type>        <stem default-y="5.5">up</stem>      </note>    </measure>    <!--=======================================================-->    <measure number="58" width="157">      <note default-x="13">        <pitch>          <step>F</step>          <octave>4</octave>        </pitch>        <duration>1024</duration>        <voice>1</voice>        <type>quarter</type>        <stem default-y="0.5">up</stem>      </note>      <note default-x="58">        <rest/>        <duration>1024</duration>        <voice>1</voice>        <type>quarter</type>      </note>      <note default-x="103">        <rest/>        <duration>1024</duration>        <voice>1</voice>        <type>quarter</type>      </note>      <barline location="right">        <bar-style>light-heavy</bar-style>      </barline>    </measure>  </part>  <!--=========================================================--></score-partwise>