<?xml version="1.0" encoding="UTF-8"?><!DOCTYPE score-partwise PUBLIC "-//Recordare//DTD MusicXML 2.0 Partwise//EN"                                "http://www.musicxml.org/dtds/partwise.dtd"><score-partwise version="2.0">  <movement-title>La clé du caveau, 1872, 4e édition, n°2344</movement-title>  <identification>    <encoding>      <software>Finale 2011 for Macintosh</software>      <software>Dolet Light for Finale 2011</software>      <encoding-date>2015-02-22</encoding-date>      <supports attribute="new-system" element="print" type="yes" value="yes"/>      <supports attribute="new-page" element="print" type="yes" value="yes"/>    </encoding>  </identification>  <defaults>    <scaling>      <millimeters>7.2319</millimeters>      <tenths>40</tenths>    </scaling>    <page-layout>      <page-height>1545</page-height>      <page-width>1194</page-width>      <page-margins type="both">        <left-margin>70</left-margin>        <right-margin>70</right-margin>        <top-margin>88</top-margin>        <bottom-margin>88</bottom-margin>      </page-margins>    </page-layout>    <system-layout>      <system-margins>        <left-margin>0</left-margin>        <right-margin>0</right-margin>      </system-margins>      <system-distance>121</system-distance>      <top-system-distance>70</top-system-distance>    </system-layout>    <appearance>      <line-width type="stem">1.4583</line-width>      <line-width type="beam">5</line-width>      <line-width type="staff">1.4583</line-width>      <line-width type="light barline">1.4583</line-width>      <line-width type="heavy barline">5</line-width>      <line-width type="leger">1.4583</line-width>      <line-width type="ending">1.4583</line-width>      <line-width type="wedge">1.4583</line-width>      <line-width type="enclosure">1.4583</line-width>      <line-width type="tuplet bracket">1.4583</line-width>      <note-size type="grace">60</note-size>      <note-size type="cue">60</note-size>    </appearance>    <music-font font-family="Maestro" font-size="20.5"/>    <word-font font-family="Times" font-size="10.25"/>  </defaults>  <credit page="1">    <credit-words default-x="597" default-y="1440" font-size="24" font-weight="bold" justify="center" valign="top" xml:lang="fr">La clé du caveau, 1872, 4e édition, n°2344</credit-words>  </credit>  <part-list>    <score-part id="P1">      <part-name print-object="no">MusicXML Part</part-name>      <score-instrument id="P1-I1">        <instrument-name>Grand Piano</instrument-name>      </score-instrument>      <midi-instrument id="P1-I1">        <midi-channel>1</midi-channel>        <midi-program>1</midi-program>        <volume>80</volume>        <pan>0</pan>      </midi-instrument>    </score-part>  </part-list>  <!--=========================================================-->  <part id="P1">    <measure number="1" width="214">      <print>        <system-layout>          <system-margins>            <left-margin>70</left-margin>            <right-margin>0</right-margin>          </system-margins>          <top-system-distance>211</top-system-distance>        </system-layout>        <measure-numbering>system</measure-numbering>      </print>      <attributes>        <divisions>12</divisions>        <key>          <fifths>1</fifths>          <mode>major</mode>        </key>        <time>          <beats>2</beats>          <beat-type>4</beat-type>        </time>        <clef>          <sign>G</sign>          <line>2</line>        </clef>      </attributes>      <direction directive="yes" placement="above">        <direction-type>          <words default-y="75" font-size="12" font-weight="bold" relative-x="-6">Allegro</words>        </direction-type>        <sound tempo="120"/>      </direction>      <direction placement="above">        <direction-type>          <words default-y="43" font-family="Times New Roman" font-style="italic">Ritournelle
</words>        </direction-type>      </direction>      <note default-x="110">        <pitch>          <step>G</step>          <octave>5</octave>        </pitch>        <duration>9</duration>        <voice>1</voice>        <type>eighth</type>        <dot/>        <stem default-y="-25">down</stem>        <beam number="1">begin</beam>      </note>      <note default-x="110">        <chord/>        <pitch>          <step>B</step>          <octave>5</octave>        </pitch>        <duration>9</duration>        <voice>1</voice>        <type>eighth</type>        <dot/>        <stem>down</stem>      </note>      <note default-x="141">        <pitch>          <step>A</step>          <octave>5</octave>        </pitch>        <duration>3</duration>        <voice>1</voice>        <type>16th</type>        <stem default-y="-22">down</stem>        <beam number="1">end</beam>        <beam number="2">backward hook</beam>      </note>      <note default-x="141">        <chord/>        <pitch>          <step>C</step>          <octave>6</octave>        </pitch>        <duration>3</duration>        <voice>1</voice>        <type>16th</type>        <stem>down</stem>      </note>      <note default-x="166">        <pitch>          <step>B</step>          <octave>5</octave>        </pitch>        <duration>6</duration>        <voice>1</voice>        <type>eighth</type>        <stem default-y="-21">down</stem>      </note>      <note default-x="166">        <chord/>        <pitch>          <step>D</step>          <octave>6</octave>        </pitch>        <duration>6</duration>        <voice>1</voice>        <type>eighth</type>        <stem>down</stem>      </note>      <note default-x="190">        <rest/>        <duration>6</duration>        <voice>1</voice>        <type>eighth</type>      </note>    </measure>    <!--=======================================================-->    <measure number="2" width="118">      <note default-x="13">        <pitch>          <step>G</step>          <octave>5</octave>        </pitch>        <duration>9</duration>        <voice>1</voice>        <type>eighth</type>        <dot/>        <stem default-y="-25">down</stem>        <beam number="1">begin</beam>      </note>      <note default-x="13">        <chord/>        <pitch>          <step>B</step>          <octave>5</octave>        </pitch>        <duration>9</duration>        <voice>1</voice>        <type>eighth</type>        <dot/>        <stem>down</stem>      </note>      <note default-x="46">        <pitch>          <step>A</step>          <octave>5</octave>        </pitch>        <duration>3</duration>        <voice>1</voice>        <type>16th</type>        <stem default-y="-22">down</stem>        <beam number="1">end</beam>        <beam number="2">backward hook</beam>      </note>      <note default-x="46">        <chord/>        <pitch>          <step>C</step>          <octave>6</octave>        </pitch>        <duration>3</duration>        <voice>1</voice>        <type>16th</type>        <stem>down</stem>      </note>      <note default-x="70">        <pitch>          <step>B</step>          <octave>5</octave>        </pitch>        <duration>6</duration>        <voice>1</voice>        <type>eighth</type>        <stem default-y="-21">down</stem>      </note>      <note default-x="70">        <chord/>        <pitch>          <step>D</step>          <octave>6</octave>        </pitch>        <duration>6</duration>        <voice>1</voice>        <type>eighth</type>        <stem>down</stem>      </note>      <note default-x="93">        <rest/>        <duration>6</duration>        <voice>1</voice>        <type>eighth</type>      </note>    </measure>    <!--=======================================================-->    <measure number="3" width="123">      <note default-x="14">        <pitch>          <step>B</step>          <octave>5</octave>        </pitch>        <duration>9</duration>        <voice>1</voice>        <type>eighth</type>        <dot/>        <stem default-y="-20">down</stem>        <beam number="1">begin</beam>      </note>      <note default-x="14">        <chord/>        <pitch>          <step>D</step>          <octave>6</octave>        </pitch>        <duration>9</duration>        <voice>1</voice>        <type>eighth</type>        <dot/>        <stem>down</stem>      </note>      <note default-x="46">        <pitch>          <step>G</step>          <octave>5</octave>        </pitch>        <duration>3</duration>        <voice>1</voice>        <type>16th</type>        <stem default-y="-22">down</stem>        <beam number="1">end</beam>        <beam number="2">backward hook</beam>      </note>      <note default-x="46">        <chord/>        <pitch>          <step>B</step>          <octave>5</octave>        </pitch>        <duration>3</duration>        <voice>1</voice>        <type>16th</type>        <stem>down</stem>      </note>      <note default-x="68">        <pitch>          <step>B</step>          <octave>4</octave>        </pitch>        <duration>9</duration>        <voice>1</voice>        <type>eighth</type>        <dot/>        <stem default-y="-55">down</stem>        <beam number="1">begin</beam>      </note>      <note default-x="68">        <chord/>        <pitch>          <step>G</step>          <octave>5</octave>        </pitch>        <duration>9</duration>        <voice>1</voice>        <type>eighth</type>        <dot/>        <stem>down</stem>      </note>      <note default-x="100">        <pitch>          <step>D</step>          <octave>5</octave>        </pitch>        <duration>3</duration>        <voice>1</voice>        <type>16th</type>        <stem default-y="-50">down</stem>        <beam number="1">end</beam>        <beam number="2">backward hook</beam>      </note>      <note default-x="100">        <chord/>        <pitch>          <step>A</step>          <octave>5</octave>        </pitch>        <duration>3</duration>        <voice>1</voice>        <type>16th</type>        <stem>down</stem>      </note>    </measure>    <!--=======================================================-->    <measure number="4" width="75">      <note default-x="14">        <pitch>          <step>D</step>          <octave>5</octave>        </pitch>        <duration>24</duration>        <voice>1</voice>        <type>half</type>        <stem default-y="-45.5">down</stem>      </note>      <note default-x="14">        <chord/>        <pitch>          <step>A</step>          <octave>5</octave>        </pitch>        <duration>24</duration>        <voice>1</voice>        <type>half</type>        <stem>down</stem>      </note>    </measure>    <!--=======================================================-->    <measure number="5" width="127">      <note default-x="13">        <pitch>          <step>D</step>          <octave>5</octave>        </pitch>        <duration>9</duration>        <voice>1</voice>        <type>eighth</type>        <dot/>        <stem default-y="-45">down</stem>        <beam number="1">begin</beam>      </note>      <note default-x="13">        <chord/>        <pitch>          <step>A</step>          <octave>5</octave>        </pitch>        <duration>9</duration>        <voice>1</voice>        <type>eighth</type>        <dot/>        <stem>down</stem>      </note>      <note default-x="46">        <pitch>          <step>A</step>          <octave>5</octave>        </pitch>        <duration>3</duration>        <voice>1</voice>        <type>16th</type>        <stem default-y="-40">down</stem>        <beam number="1">end</beam>        <beam number="2">backward hook</beam>      </note>      <note default-x="46">        <chord/>        <pitch>          <step>C</step>          <octave>6</octave>        </pitch>        <duration>3</duration>        <voice>1</voice>        <type>16th</type>        <stem>down</stem>      </note>      <note default-x="71">        <pitch>          <step>G</step>          <octave>5</octave>        </pitch>        <duration>9</duration>        <voice>1</voice>        <type>eighth</type>        <dot/>        <stem default-y="-40">down</stem>        <beam number="1">begin</beam>      </note>      <note default-x="71">        <chord/>        <pitch>          <step>B</step>          <octave>5</octave>        </pitch>        <duration>9</duration>        <voice>1</voice>        <type>eighth</type>        <dot/>        <stem>down</stem>      </note>      <note default-x="104">        <pitch>          <step>D</step>          <octave>5</octave>        </pitch>        <duration>3</duration>        <voice>1</voice>        <type>16th</type>        <stem default-y="-42">down</stem>        <beam number="1">end</beam>        <beam number="2">backward hook</beam>      </note>      <note default-x="104">        <chord/>        <pitch>          <step>A</step>          <octave>5</octave>        </pitch>        <duration>3</duration>        <voice>1</voice>        <type>16th</type>        <stem>down</stem>      </note>    </measure>    <!--=======================================================-->    <measure number="6" width="103">      <note default-x="10">        <pitch>          <step>B</step>          <octave>4</octave>        </pitch>        <duration>6</duration>        <voice>1</voice>        <type>eighth</type>        <stem default-y="-55">down</stem>        <beam number="1">begin</beam>      </note>      <note default-x="10">        <chord/>        <pitch>          <step>G</step>          <octave>5</octave>        </pitch>        <duration>6</duration>        <voice>1</voice>        <type>eighth</type>        <stem>down</stem>      </note>      <note default-x="33">        <pitch>          <step>D</step>          <octave>5</octave>        </pitch>        <duration>6</duration>        <voice>1</voice>        <type>eighth</type>        <stem default-y="-55">down</stem>        <beam number="1">continue</beam>      </note>      <note default-x="56">        <pitch>          <step>B</step>          <octave>4</octave>        </pitch>        <duration>6</duration>        <voice>1</voice>        <type>eighth</type>        <stem default-y="-55">down</stem>        <beam number="1">continue</beam>      </note>      <note default-x="56">        <chord/>        <pitch>          <step>G</step>          <octave>5</octave>        </pitch>        <duration>6</duration>        <voice>1</voice>        <type>eighth</type>        <stem>down</stem>      </note>      <note default-x="78">        <pitch>          <step>D</step>          <octave>5</octave>        </pitch>        <duration>6</duration>        <voice>1</voice>        <type>eighth</type>        <stem default-y="-55">down</stem>        <beam number="1">end</beam>      </note>      <note default-x="78">        <chord/>        <pitch>          <step>A</step>          <octave>5</octave>        </pitch>        <duration>6</duration>        <voice>1</voice>        <type>eighth</type>        <stem>down</stem>      </note>    </measure>    <!--=======================================================-->    <measure number="7" width="106">      <note default-x="13">        <pitch>          <step>G</step>          <octave>5</octave>        </pitch>        <duration>6</duration>        <voice>1</voice>        <type>eighth</type>        <stem default-y="-30.5">down</stem>      </note>      <note default-x="13">        <chord/>        <pitch>          <step>B</step>          <octave>5</octave>        </pitch>        <duration>6</duration>        <voice>1</voice>        <type>eighth</type>        <stem>down</stem>      </note>      <note default-x="36">        <rest/>        <duration>6</duration>        <voice>1</voice>        <type>eighth</type>      </note>      <note default-x="59">        <pitch>          <step>D</step>          <octave>5</octave>        </pitch>        <duration>6</duration>        <voice>1</voice>        <type>eighth</type>        <stem default-y="-45.5">down</stem>      </note>      <note default-x="59">        <chord/>        <pitch>          <step>F</step>          <alter>1</alter>          <octave>5</octave>        </pitch>        <duration>6</duration>        <voice>1</voice>        <type>eighth</type>        <stem>down</stem>      </note>      <note default-x="59">        <chord/>        <pitch>          <step>A</step>          <octave>5</octave>        </pitch>        <duration>6</duration>        <voice>1</voice>        <type>eighth</type>        <stem>down</stem>      </note>      <note default-x="59">        <chord/>        <pitch>          <step>D</step>          <octave>6</octave>        </pitch>        <duration>6</duration>        <voice>1</voice>        <type>eighth</type>        <stem>down</stem>      </note>      <note default-x="82">        <rest/>        <duration>6</duration>        <voice>1</voice>        <type>eighth</type>        <notations>          <fermata default-x="-6" default-y="5" type="upright"/>        </notations>      </note>    </measure>    <!--=======================================================-->    <measure number="8" width="117">      <note default-x="14">        <pitch>          <step>B</step>          <octave>3</octave>        </pitch>        <duration>6</duration>        <voice>1</voice>        <type>eighth</type>        <stem default-y="5.5">up</stem>      </note>      <note default-x="14">        <chord/>        <pitch>          <step>D</step>          <octave>4</octave>        </pitch>        <duration>6</duration>        <voice>1</voice>        <type>eighth</type>        <stem>up</stem>      </note>      <note default-x="14">        <chord/>        <pitch>          <step>G</step>          <octave>4</octave>        </pitch>        <duration>6</duration>        <voice>1</voice>        <type>eighth</type>        <stem>up</stem>      </note>      <note default-x="40">        <rest/>        <duration>6</duration>        <voice>1</voice>        <type>eighth</type>      </note>      <note default-x="64">        <pitch>          <step>B</step>          <octave>3</octave>        </pitch>        <duration>6</duration>        <voice>1</voice>        <type>eighth</type>        <stem default-y="5.5">up</stem>      </note>      <note default-x="64">        <chord/>        <pitch>          <step>D</step>          <octave>4</octave>        </pitch>        <duration>6</duration>        <voice>1</voice>        <type>eighth</type>        <stem>up</stem>      </note>      <note default-x="64">        <chord/>        <pitch>          <step>G</step>          <octave>4</octave>        </pitch>        <duration>6</duration>        <voice>1</voice>        <type>eighth</type>        <stem>up</stem>      </note>      <note default-x="91">        <rest/>        <duration>6</duration>        <voice>1</voice>        <type>eighth</type>      </note>    </measure>    <!--=======================================================-->    <measure number="9" width="182">      <print new-system="yes">        <system-layout>          <system-distance>114</system-distance>        </system-layout>      </print>      <note default-x="78">        <pitch>          <step>B</step>          <octave>3</octave>        </pitch>        <duration>6</duration>        <voice>1</voice>        <type>eighth</type>        <stem default-y="6">up</stem>      </note>      <note default-x="78">        <chord/>        <pitch>          <step>D</step>          <octave>4</octave>        </pitch>        <duration>6</duration>        <voice>1</voice>        <type>eighth</type>        <stem>up</stem>      </note>      <note default-x="78">        <chord/>        <pitch>          <step>G</step>          <octave>4</octave>        </pitch>        <duration>6</duration>        <voice>1</voice>        <type>eighth</type>        <stem>up</stem>      </note>      <note default-x="105">        <rest/>        <duration>6</duration>        <voice>1</voice>        <type>eighth</type>      </note>      <note default-x="130">        <pitch>          <step>B</step>          <octave>3</octave>        </pitch>        <duration>6</duration>        <voice>1</voice>        <type>eighth</type>        <stem default-y="6">up</stem>      </note>      <note default-x="130">        <chord/>        <pitch>          <step>D</step>          <octave>4</octave>        </pitch>        <duration>6</duration>        <voice>1</voice>        <type>eighth</type>        <stem>up</stem>      </note>      <note default-x="130">        <chord/>        <pitch>          <step>G</step>          <octave>4</octave>        </pitch>        <duration>6</duration>        <voice>1</voice>        <type>eighth</type>        <stem>up</stem>      </note>      <note default-x="157">        <rest/>        <duration>6</duration>        <voice>1</voice>        <type>eighth</type>      </note>    </measure>    <!--=======================================================-->    <measure number="10" width="108">      <attributes>        <clef>          <sign>F</sign>          <line>4</line>        </clef>      </attributes>      <direction placement="above">        <direction-type>          <words default-y="25" font-family="Times New Roman" font-style="italic">Chant</words>        </direction-type>      </direction>      <note default-x="11">        <pitch>          <step>B</step>          <octave>3</octave>        </pitch>        <duration>9</duration>        <voice>1</voice>        <type>eighth</type>        <dot/>        <stem default-y="-31">down</stem>      </note>      <note default-x="43">        <pitch>          <step>C</step>          <octave>4</octave>        </pitch>        <duration>3</duration>        <voice>1</voice>        <type>16th</type>        <stem default-y="-25.5">down</stem>      </note>      <note default-x="68">        <pitch>          <step>D</step>          <octave>4</octave>        </pitch>        <duration>12</duration>        <voice>1</voice>        <type>quarter</type>        <stem default-y="-20.5">down</stem>      </note>    </measure>    <!--=======================================================-->    <measure number="11" width="110">      <note default-x="14">        <pitch>          <step>D</step>          <octave>4</octave>        </pitch>        <duration>9</duration>        <voice>1</voice>        <type>eighth</type>        <dot/>        <stem default-y="-20.5">down</stem>      </note>      <note default-x="46">        <pitch>          <step>D</step>          <octave>4</octave>        </pitch>        <duration>3</duration>        <voice>1</voice>        <type>16th</type>        <stem default-y="-20.5">down</stem>      </note>      <note default-x="71">        <pitch>          <step>D</step>          <octave>4</octave>        </pitch>        <duration>12</duration>        <voice>1</voice>        <type>quarter</type>        <stem default-y="-20.5">down</stem>      </note>    </measure>    <!--=======================================================-->    <measure number="12" width="115">      <note default-x="13">        <pitch>          <step>D</step>          <octave>4</octave>        </pitch>        <duration>9</duration>        <voice>1</voice>        <type>eighth</type>        <dot/>        <stem default-y="-20.5">down</stem>      </note>      <note default-x="45">        <pitch>          <step>B</step>          <octave>3</octave>        </pitch>        <duration>3</duration>        <voice>1</voice>        <type>16th</type>        <stem default-y="-31">down</stem>      </note>      <note default-x="64">        <pitch>          <step>G</step>          <octave>3</octave>        </pitch>        <duration>9</duration>        <voice>1</voice>        <type>eighth</type>        <dot/>        <stem default-y="-40.5">down</stem>      </note>      <note default-x="96">        <pitch>          <step>A</step>          <octave>3</octave>        </pitch>        <duration>3</duration>        <voice>1</voice>        <type>16th</type>        <stem default-y="-36">down</stem>      </note>    </measure>    <!--=======================================================-->    <measure number="13" width="73">      <note default-x="11">        <pitch>          <step>A</step>          <octave>3</octave>        </pitch>        <duration>24</duration>        <voice>1</voice>        <type>half</type>        <stem default-y="-36">down</stem>      </note>    </measure>    <!--=======================================================-->    <measure number="14" width="122">      <note default-x="11">        <pitch>          <step>B</step>          <octave>3</octave>        </pitch>        <duration>9</duration>        <voice>1</voice>        <type>eighth</type>        <dot/>        <stem default-y="-31">down</stem>      </note>      <note default-x="42">        <pitch>          <step>F</step>          <alter>1</alter>          <octave>3</octave>        </pitch>        <duration>3</duration>        <voice>1</voice>        <type>16th</type>        <stem default-y="-45.5">down</stem>      </note>      <note default-x="73">        <pitch>          <step>D</step>          <alter>1</alter>          <octave>3</octave>        </pitch>        <duration>6</duration>        <voice>1</voice>        <type>eighth</type>        <accidental>sharp</accidental>        <stem default-y="-56">down</stem>      </note>      <note default-x="97">        <pitch>          <step>F</step>          <alter>1</alter>          <octave>3</octave>        </pitch>        <duration>6</duration>        <voice>1</voice>        <type>eighth</type>        <stem default-y="-45.5">down</stem>      </note>    </measure>    <!--=======================================================-->    <measure number="15" width="131">      <note default-x="11">        <pitch>          <step>B</step>          <octave>3</octave>        </pitch>        <duration>6</duration>        <voice>1</voice>        <type>eighth</type>        <stem default-y="-31">down</stem>      </note>      <note default-x="43">        <pitch>          <step>C</step>          <alter>1</alter>          <octave>4</octave>        </pitch>        <duration>6</duration>        <voice>1</voice>        <type>eighth</type>        <accidental>sharp</accidental>        <stem default-y="-25.5">down</stem>      </note>      <note default-x="77">        <pitch>          <step>D</step>          <alter>1</alter>          <octave>4</octave>        </pitch>        <duration>6</duration>        <voice>1</voice>        <type>eighth</type>        <accidental>sharp</accidental>        <stem default-y="-20.5">down</stem>      </note>      <note default-x="104">        <pitch>          <step>E</step>          <octave>4</octave>        </pitch>        <duration>6</duration>        <voice>1</voice>        <type>eighth</type>        <stem default-y="-20.5">down</stem>      </note>    </measure>    <!--=======================================================-->    <measure number="16" width="125">      <note default-x="23">        <pitch>          <step>D</step>          <alter>1</alter>          <octave>4</octave>        </pitch>        <duration>6</duration>        <voice>1</voice>        <type>eighth</type>        <accidental>sharp</accidental>        <stem default-y="-20.5">down</stem>      </note>      <note default-x="47">        <rest/>        <duration>6</duration>        <voice>1</voice>        <type>eighth</type>      </note>      <note default-x="75">        <pitch>          <step>C</step>          <alter>1</alter>          <octave>4</octave>        </pitch>        <duration>6</duration>        <voice>1</voice>        <type>eighth</type>        <accidental>sharp</accidental>        <stem default-y="-25.5">down</stem>      </note>      <note default-x="99">        <rest/>        <duration>6</duration>        <voice>1</voice>        <type>eighth</type>      </note>    </measure>    <!--=======================================================-->    <measure number="17" width="87">      <note default-x="11">        <pitch>          <step>B</step>          <octave>3</octave>        </pitch>        <duration>12</duration>        <voice>1</voice>        <type>quarter</type>        <stem default-y="-31">down</stem>      </note>      <note default-x="48">        <rest/>        <duration>12</duration>        <voice>1</voice>        <type>quarter</type>      </note>    </measure>    <!--=======================================================-->    <measure number="18" width="181">      <print new-system="yes">        <system-layout>          <system-distance>114</system-distance>        </system-layout>      </print>      <note default-x="76">        <pitch>          <step>B</step>          <octave>3</octave>        </pitch>        <duration>9</duration>        <voice>1</voice>        <type>eighth</type>        <dot/>        <stem default-y="-31">down</stem>      </note>      <note default-x="117">        <pitch>          <step>C</step>          <alter>1</alter>          <octave>4</octave>        </pitch>        <duration>3</duration>        <voice>1</voice>        <type>16th</type>        <accidental>sharp</accidental>        <stem default-y="-26">down</stem>      </note>      <note default-x="141">        <pitch>          <step>D</step>          <octave>4</octave>        </pitch>        <duration>12</duration>        <voice>1</voice>        <type>quarter</type>        <stem default-y="-20.5">down</stem>      </note>    </measure>    <!--=======================================================-->    <measure number="19" width="109">      <note default-x="13">        <pitch>          <step>D</step>          <octave>4</octave>        </pitch>        <duration>9</duration>        <voice>1</voice>        <type>eighth</type>        <dot/>        <stem default-y="-20.5">down</stem>      </note>      <note default-x="45">        <pitch>          <step>E</step>          <octave>4</octave>        </pitch>        <duration>3</duration>        <voice>1</voice>        <type>16th</type>        <stem default-y="-20.5">down</stem>      </note>      <note default-x="70">        <pitch>          <step>D</step>          <octave>4</octave>        </pitch>        <duration>12</duration>        <voice>1</voice>        <type>quarter</type>        <stem default-y="-20.5">down</stem>      </note>    </measure>    <!--=======================================================-->    <measure number="20" width="114">      <note default-x="13">        <pitch>          <step>D</step>          <octave>4</octave>        </pitch>        <duration>9</duration>        <voice>1</voice>        <type>eighth</type>        <dot/>        <stem default-y="-20.5">down</stem>      </note>      <note default-x="44">        <pitch>          <step>B</step>          <octave>3</octave>        </pitch>        <duration>3</duration>        <voice>1</voice>        <type>16th</type>        <stem default-y="-31">down</stem>      </note>      <note default-x="63">        <pitch>          <step>G</step>          <octave>3</octave>        </pitch>        <duration>9</duration>        <voice>1</voice>        <type>eighth</type>        <dot/>        <stem default-y="-40.5">down</stem>      </note>      <note default-x="94">        <pitch>          <step>A</step>          <octave>3</octave>        </pitch>        <duration>3</duration>        <voice>1</voice>        <type>16th</type>        <stem default-y="-35.5">down</stem>      </note>    </measure>    <!--=======================================================-->    <measure number="21" width="72">      <note default-x="11">        <pitch>          <step>A</step>          <octave>3</octave>        </pitch>        <duration>24</duration>        <voice>1</voice>        <type>half</type>        <stem default-y="-35.5">down</stem>      </note>    </measure>    <!--=======================================================-->    <measure number="22" width="120">      <note default-x="11">        <pitch>          <step>B</step>          <octave>3</octave>        </pitch>        <duration>9</duration>        <voice>1</voice>        <type>eighth</type>        <dot/>        <stem default-y="-31">down</stem>      </note>      <note default-x="41">        <pitch>          <step>F</step>          <alter>1</alter>          <octave>3</octave>        </pitch>        <duration>3</duration>        <voice>1</voice>        <type>16th</type>        <stem default-y="-46">down</stem>      </note>      <note default-x="72">        <pitch>          <step>D</step>          <alter>1</alter>          <octave>3</octave>        </pitch>        <duration>6</duration>        <voice>1</voice>        <type>eighth</type>        <accidental>sharp</accidental>        <stem default-y="-55.5">down</stem>      </note>      <note default-x="95">        <pitch>          <step>F</step>          <alter>1</alter>          <octave>3</octave>        </pitch>        <duration>6</duration>        <voice>1</voice>        <type>eighth</type>        <stem default-y="-46">down</stem>      </note>    </measure>    <!--=======================================================-->    <measure number="23" width="129">      <note default-x="11">        <pitch>          <step>B</step>          <octave>3</octave>        </pitch>        <duration>6</duration>        <voice>1</voice>        <type>eighth</type>        <stem default-y="-31">down</stem>      </note>      <note default-x="43">        <pitch>          <step>C</step>          <alter>1</alter>          <octave>4</octave>        </pitch>        <duration>6</duration>        <voice>1</voice>        <type>eighth</type>        <accidental>sharp</accidental>        <stem default-y="-26">down</stem>      </note>      <note default-x="77">        <pitch>          <step>D</step>          <alter>1</alter>          <octave>4</octave>        </pitch>        <duration>6</duration>        <voice>1</voice>        <type>eighth</type>        <accidental>sharp</accidental>        <stem default-y="-20.5">down</stem>      </note>      <note default-x="103">        <pitch>          <step>E</step>          <octave>4</octave>        </pitch>        <duration>6</duration>        <voice>1</voice>        <type>eighth</type>        <stem default-y="-20.5">down</stem>      </note>    </measure>    <!--=======================================================-->    <measure number="24" width="123">      <note default-x="23">        <pitch>          <step>D</step>          <alter>1</alter>          <octave>4</octave>        </pitch>        <duration>6</duration>        <voice>1</voice>        <type>eighth</type>        <accidental>sharp</accidental>        <stem default-y="-20.5">down</stem>      </note>      <note default-x="47">        <rest/>        <duration>6</duration>        <voice>1</voice>        <type>eighth</type>      </note>      <note default-x="75">        <pitch>          <step>C</step>          <alter>1</alter>          <octave>4</octave>        </pitch>        <duration>6</duration>        <voice>1</voice>        <type>eighth</type>        <accidental>sharp</accidental>        <stem default-y="-26">down</stem>      </note>      <note default-x="98">        <rest/>        <duration>6</duration>        <voice>1</voice>        <type>eighth</type>      </note>    </measure>    <!--=======================================================-->    <measure number="25" width="95">      <note default-x="11">        <pitch>          <step>B</step>          <octave>3</octave>        </pitch>        <duration>6</duration>        <voice>1</voice>        <type>eighth</type>        <stem default-y="-31">down</stem>      </note>      <note default-x="33">        <rest/>        <duration>6</duration>        <voice>1</voice>        <type>eighth</type>      </note>      <note default-x="56">        <pitch>          <step>B</step>          <octave>3</octave>        </pitch>        <duration>12</duration>        <voice>1</voice>        <type>quarter</type>        <stem default-y="-31">down</stem>        <notations>          <fermata default-x="-5" default-y="20" type="upright"/>        </notations>      </note>    </measure>    <!--=======================================================-->    <measure number="26" width="112">      <note default-x="11">        <pitch>          <step>B</step>          <octave>3</octave>        </pitch>        <duration>9</duration>        <voice>1</voice>        <type>eighth</type>        <dot/>        <stem default-y="-31">down</stem>      </note>      <note default-x="42">        <pitch>          <step>A</step>          <octave>3</octave>        </pitch>        <duration>3</duration>        <voice>1</voice>        <type>16th</type>        <stem default-y="-35.5">down</stem>      </note>      <note default-x="60">        <pitch>          <step>G</step>          <octave>3</octave>        </pitch>        <duration>9</duration>        <voice>1</voice>        <type>eighth</type>        <dot/>        <stem default-y="-40.5">down</stem>      </note>      <note default-x="92">        <pitch>          <step>A</step>          <octave>3</octave>        </pitch>        <duration>3</duration>        <voice>1</voice>        <type>16th</type>        <stem default-y="-35.5">down</stem>      </note>    </measure>    <!--=======================================================-->    <measure number="27" width="147">      <print new-system="yes">        <system-layout>          <system-distance>114</system-distance>        </system-layout>      </print>      <note default-x="76">        <pitch>          <step>B</step>          <octave>3</octave>        </pitch>        <duration>12</duration>        <voice>1</voice>        <type>quarter</type>        <stem default-y="-30.5">down</stem>      </note>      <note default-x="111">        <pitch>          <step>D</step>          <octave>4</octave>        </pitch>        <duration>12</duration>        <voice>1</voice>        <type>quarter</type>        <stem default-y="-21">down</stem>      </note>    </measure>    <!--=======================================================-->    <measure number="28" width="85">      <note default-x="14">        <pitch>          <step>D</step>          <octave>4</octave>        </pitch>        <duration>12</duration>        <voice>1</voice>        <type>quarter</type>        <stem default-y="-21">down</stem>      </note>      <note default-x="49">        <pitch>          <step>D</step>          <octave>4</octave>        </pitch>        <duration>12</duration>        <voice>1</voice>        <type>quarter</type>        <stem default-y="-21">down</stem>      </note>    </measure>    <!--=======================================================-->    <measure number="29" width="130">      <note default-x="13">        <pitch>          <step>E</step>          <octave>4</octave>        </pitch>        <duration>4</duration>        <voice>1</voice>        <type>eighth</type>        <time-modification>          <actual-notes>3</actual-notes>          <normal-notes>2</normal-notes>        </time-modification>        <stem default-y="-20">down</stem>        <beam number="1">begin</beam>        <notations>          <tuplet number="1" placement="below" type="start"/>          <slur number="1" placement="above" type="start"/>        </notations>      </note>      <note default-x="38">        <pitch>          <step>D</step>          <octave>4</octave>        </pitch>        <duration>4</duration>        <voice>1</voice>        <type>eighth</type>        <time-modification>          <actual-notes>3</actual-notes>          <normal-notes>2</normal-notes>        </time-modification>        <stem default-y="-21">down</stem>        <beam number="1">continue</beam>      </note>      <note default-x="63">        <pitch>          <step>C</step>          <octave>4</octave>        </pitch>        <duration>4</duration>        <voice>1</voice>        <type>eighth</type>        <time-modification>          <actual-notes>3</actual-notes>          <normal-notes>2</normal-notes>        </time-modification>        <stem default-y="-22">down</stem>        <beam number="1">end</beam>        <notations>          <tuplet number="1" type="stop"/>          <slur number="1" type="stop"/>        </notations>      </note>      <note default-x="85">        <pitch>          <step>B</step>          <octave>3</octave>        </pitch>        <duration>6</duration>        <voice>1</voice>        <type>eighth</type>        <stem default-y="-30.5">down</stem>      </note>      <note default-x="107">        <rest/>        <duration>6</duration>        <voice>1</voice>        <type>eighth</type>      </note>    </measure>    <!--=======================================================-->    <measure number="30" width="107">      <note default-x="11">        <pitch>          <step>B</step>          <octave>3</octave>        </pitch>        <duration>9</duration>        <voice>1</voice>        <type>eighth</type>        <dot/>        <stem default-y="-30.5">down</stem>      </note>      <note default-x="40">        <pitch>          <step>A</step>          <octave>3</octave>        </pitch>        <duration>3</duration>        <voice>1</voice>        <type>16th</type>        <stem default-y="-35.5">down</stem>      </note>      <note default-x="58">        <pitch>          <step>G</step>          <octave>3</octave>        </pitch>        <duration>9</duration>        <voice>1</voice>        <type>eighth</type>        <dot/>        <stem default-y="-41">down</stem>      </note>      <note default-x="88">        <pitch>          <step>A</step>          <octave>3</octave>        </pitch>        <duration>3</duration>        <voice>1</voice>        <type>16th</type>        <stem default-y="-35.5">down</stem>      </note>    </measure>    <!--=======================================================-->    <measure number="31" width="99">      <note default-x="11">        <pitch>          <step>B</step>          <octave>3</octave>        </pitch>        <duration>12</duration>        <voice>1</voice>        <type>quarter</type>        <stem default-y="-30.5">down</stem>      </note>      <note default-x="46">        <pitch>          <step>B</step>          <octave>3</octave>        </pitch>        <duration>9</duration>        <voice>1</voice>        <type>eighth</type>        <dot/>        <stem default-y="-25">down</stem>        <beam number="1">begin</beam>      </note>      <note default-x="76">        <pitch>          <step>C</step>          <octave>4</octave>        </pitch>        <duration>3</duration>        <voice>1</voice>        <type>16th</type>        <stem default-y="-22">down</stem>        <beam number="1">end</beam>        <beam number="2">backward hook</beam>      </note>    </measure>    <!--=======================================================-->    <measure number="32" width="85">      <note default-x="14">        <pitch>          <step>D</step>          <octave>4</octave>        </pitch>        <duration>12</duration>        <voice>1</voice>        <type>quarter</type>        <stem default-y="-21">down</stem>      </note>      <note default-x="49">        <pitch>          <step>D</step>          <octave>4</octave>        </pitch>        <duration>12</duration>        <voice>1</voice>        <type>quarter</type>        <stem default-y="-21">down</stem>      </note>    </measure>    <!--=======================================================-->    <measure number="33" width="117">      <note default-x="14">        <pitch>          <step>C</step>          <octave>4</octave>        </pitch>        <duration>4</duration>        <voice>1</voice>        <type>eighth</type>        <time-modification>          <actual-notes>3</actual-notes>          <normal-notes>2</normal-notes>        </time-modification>        <stem default-y="-30">down</stem>        <beam number="1">begin</beam>        <notations>          <tuplet number="1" placement="below" type="start"/>          <slur bezier-x="13" bezier-y="6" default-x="6" default-y="20" number="1" placement="above" type="start"/>        </notations>      </note>      <note default-x="35">        <pitch>          <step>B</step>          <octave>3</octave>        </pitch>        <duration>4</duration>        <voice>1</voice>        <type>eighth</type>        <time-modification>          <actual-notes>3</actual-notes>          <normal-notes>2</normal-notes>        </time-modification>        <stem default-y="-31">down</stem>        <beam number="1">continue</beam>        <notations>          <slur bezier-x="-10" bezier-y="10" default-x="25" default-y="12" number="1" type="stop"/>        </notations>      </note>      <note default-x="53">        <pitch>          <step>A</step>          <octave>3</octave>        </pitch>        <duration>4</duration>        <voice>1</voice>        <type>eighth</type>        <time-modification>          <actual-notes>3</actual-notes>          <normal-notes>2</normal-notes>        </time-modification>        <stem default-y="-32.5">down</stem>        <beam number="1">end</beam>        <notations>          <tuplet number="1" type="stop"/>        </notations>      </note>      <note default-x="72">        <pitch>          <step>G</step>          <octave>3</octave>        </pitch>        <duration>6</duration>        <voice>1</voice>        <type>eighth</type>        <stem default-y="-41">down</stem>      </note>      <note default-x="93">        <rest/>        <duration>6</duration>        <voice>1</voice>        <type>eighth</type>      </note>    </measure>    <!--=======================================================-->    <measure number="34" width="107">      <note default-x="11">        <pitch>          <step>B</step>          <octave>3</octave>        </pitch>        <duration>9</duration>        <voice>1</voice>        <type>eighth</type>        <dot/>        <stem default-y="-30.5">down</stem>      </note>      <note default-x="40">        <pitch>          <step>A</step>          <octave>3</octave>        </pitch>        <duration>3</duration>        <voice>1</voice>        <type>16th</type>        <stem default-y="-35.5">down</stem>      </note>      <note default-x="58">        <pitch>          <step>G</step>          <octave>3</octave>        </pitch>        <duration>9</duration>        <voice>1</voice>        <type>eighth</type>        <dot/>        <stem default-y="-41">down</stem>      </note>      <note default-x="88">        <pitch>          <step>A</step>          <octave>3</octave>        </pitch>        <duration>3</duration>        <voice>1</voice>        <type>16th</type>        <stem default-y="-35.5">down</stem>      </note>    </measure>    <!--=======================================================-->    <measure number="35" width="91">      <note default-x="11">        <pitch>          <step>B</step>          <octave>3</octave>        </pitch>        <duration>6</duration>        <voice>1</voice>        <type>eighth</type>        <stem default-y="-30.5">down</stem>      </note>      <note default-x="33">        <rest/>        <duration>6</duration>        <voice>1</voice>        <type>eighth</type>      </note>      <note default-x="54">        <pitch>          <step>E</step>          <octave>4</octave>        </pitch>        <duration>12</duration>        <voice>1</voice>        <type>quarter</type>        <stem default-y="-21">down</stem>      </note>    </measure>    <!--=======================================================-->    <measure number="36" width="86">      <note default-x="14">        <pitch>          <step>E</step>          <octave>4</octave>        </pitch>        <duration>12</duration>        <voice>1</voice>        <type>quarter</type>        <stem default-y="-21">down</stem>      </note>      <note default-x="49">        <pitch>          <step>E</step>          <octave>4</octave>        </pitch>        <duration>12</duration>        <voice>1</voice>        <type>quarter</type>        <stem default-y="-21">down</stem>      </note>    </measure>    <!--=======================================================-->    <measure number="37" width="207">      <print new-system="yes">        <system-layout>          <system-distance>114</system-distance>        </system-layout>      </print>      <note default-x="79">        <pitch>          <step>E</step>          <octave>4</octave>        </pitch>        <duration>4</duration>        <voice>1</voice>        <type>eighth</type>        <time-modification>          <actual-notes>3</actual-notes>          <normal-notes>2</normal-notes>        </time-modification>        <stem default-y="-20">down</stem>        <beam number="1">begin</beam>        <notations>          <tuplet number="1" placement="below" type="start"/>          <slur number="1" placement="above" type="start"/>        </notations>      </note>      <note default-x="103">        <pitch>          <step>D</step>          <octave>4</octave>        </pitch>        <duration>4</duration>        <voice>1</voice>        <type>eighth</type>        <time-modification>          <actual-notes>3</actual-notes>          <normal-notes>2</normal-notes>        </time-modification>        <stem default-y="-21">down</stem>        <beam number="1">continue</beam>      </note>      <note default-x="128">        <pitch>          <step>C</step>          <octave>4</octave>        </pitch>        <duration>4</duration>        <voice>1</voice>        <type>eighth</type>        <time-modification>          <actual-notes>3</actual-notes>          <normal-notes>2</normal-notes>        </time-modification>        <stem default-y="-22">down</stem>        <beam number="1">end</beam>        <notations>          <tuplet number="1" type="stop"/>          <slur number="1" type="stop"/>        </notations>      </note>      <note default-x="151">        <pitch>          <step>B</step>          <octave>3</octave>        </pitch>        <duration>6</duration>        <voice>1</voice>        <type>eighth</type>        <stem default-y="-30.5">down</stem>      </note>      <note default-x="178">        <rest/>        <duration>6</duration>        <voice>1</voice>        <type>eighth</type>      </note>    </measure>    <!--=======================================================-->    <measure number="38" width="128">      <note default-x="11">        <pitch>          <step>E</step>          <octave>3</octave>        </pitch>        <duration>9</duration>        <voice>1</voice>        <type>eighth</type>        <dot/>        <stem default-y="-50.5">down</stem>      </note>      <note default-x="50">        <pitch>          <step>D</step>          <alter>1</alter>          <octave>3</octave>        </pitch>        <duration>3</duration>        <voice>1</voice>        <type>16th</type>        <accidental>sharp</accidental>        <stem default-y="-55.5">down</stem>      </note>      <note default-x="69">        <pitch>          <step>E</step>          <octave>3</octave>        </pitch>        <duration>9</duration>        <voice>1</voice>        <type>eighth</type>        <dot/>        <stem default-y="-50.5">down</stem>      </note>      <note default-x="108">        <pitch>          <step>F</step>          <alter>1</alter>          <octave>3</octave>        </pitch>        <duration>3</duration>        <voice>1</voice>        <type>16th</type>        <stem default-y="-46">down</stem>      </note>    </measure>    <!--=======================================================-->    <measure number="39" width="115">      <note default-x="10">        <pitch>          <step>G</step>          <octave>3</octave>        </pitch>        <duration>9</duration>        <voice>1</voice>        <type>eighth</type>        <dot/>        <stem default-y="-40">down</stem>        <beam number="1">begin</beam>      </note>      <note default-x="44">        <pitch>          <step>F</step>          <alter>1</alter>          <octave>3</octave>        </pitch>        <duration>3</duration>        <voice>1</voice>        <type>16th</type>        <stem default-y="-42">down</stem>        <beam number="1">end</beam>        <beam number="2">backward hook</beam>      </note>      <note default-x="62">        <pitch>          <step>G</step>          <octave>3</octave>        </pitch>        <duration>9</duration>        <voice>1</voice>        <type>eighth</type>        <dot/>        <stem default-y="-35">down</stem>        <beam number="1">begin</beam>      </note>      <note default-x="95">        <pitch>          <step>A</step>          <octave>3</octave>        </pitch>        <duration>3</duration>        <voice>1</voice>        <type>16th</type>        <stem default-y="-32.5">down</stem>        <beam number="1">end</beam>        <beam number="2">backward hook</beam>      </note>    </measure>    <!--=======================================================-->    <measure number="40" width="88">      <note default-x="11">        <pitch>          <step>B</step>          <octave>3</octave>        </pitch>        <duration>18</duration>        <voice>1</voice>        <type>quarter</type>        <dot/>        <stem default-y="-30.5">down</stem>      </note>      <note default-x="62">        <pitch>          <step>B</step>          <octave>3</octave>        </pitch>        <duration>6</duration>        <voice>1</voice>        <type>eighth</type>        <stem default-y="-30.5">down</stem>      </note>    </measure>    <!--=======================================================-->    <measure number="41" width="145">      <note default-x="23">        <pitch>          <step>C</step>          <alter>1</alter>          <octave>4</octave>        </pitch>        <duration>12</duration>        <voice>1</voice>        <type>quarter</type>        <accidental>sharp</accidental>        <stem default-y="-26">down</stem>        <notations>          <fermata default-x="-5" default-y="25" type="upright"/>          <ornaments>            <trill-mark default-x="0" default-y="54" placement="above"/>          </ornaments>        </notations>      </note>      <note default-x="44">        <grace/>        <pitch>          <step>B</step>          <octave>3</octave>        </pitch>        <voice>1</voice>        <type>16th</type>        <stem default-y="28">up</stem>        <beam number="1">begin</beam>        <beam number="2">begin</beam>      </note>      <note default-x="61">        <grace/>        <pitch>          <step>C</step>          <alter>1</alter>          <octave>4</octave>        </pitch>        <voice>1</voice>        <type>16th</type>        <stem default-y="31">up</stem>        <beam number="1">end</beam>        <beam number="2">end</beam>      </note>      <note default-x="80">        <pitch>          <step>D</step>          <octave>4</octave>        </pitch>        <duration>9</duration>        <voice>1</voice>        <type>eighth</type>        <dot/>        <stem default-y="-21">down</stem>      </note>      <note default-x="122">        <pitch>          <step>E</step>          <octave>4</octave>        </pitch>        <duration>3</duration>        <voice>1</voice>        <type>16th</type>        <stem default-y="-21">down</stem>      </note>    </measure>    <!--=======================================================-->    <measure number="42" width="103">      <note default-x="14">        <pitch>          <step>D</step>          <octave>4</octave>        </pitch>        <duration>6</duration>        <voice>1</voice>        <type>eighth</type>        <stem default-y="-21">down</stem>      </note>      <note default-x="38">        <rest/>        <duration>6</duration>        <voice>1</voice>        <type>eighth</type>      </note>      <note default-x="62">        <pitch>          <step>D</step>          <octave>4</octave>        </pitch>        <duration>12</duration>        <tie type="start"/>        <voice>1</voice>        <type>quarter</type>        <stem default-y="-21">down</stem>        <notations>          <tied type="start"/>        </notations>      </note>    </measure>    <!--=======================================================-->    <measure number="43" width="78">      <note default-x="14">        <pitch>          <step>D</step>          <octave>4</octave>        </pitch>        <duration>24</duration>        <tie type="stop"/>        <tie type="start"/>        <voice>1</voice>        <type>half</type>        <stem default-y="-21">down</stem>        <notations>          <tied type="stop"/>          <tied type="start"/>        </notations>      </note>    </measure>    <!--=======================================================-->    <measure number="44" width="78">      <note default-x="13">        <pitch>          <step>D</step>          <octave>4</octave>        </pitch>        <duration>24</duration>        <tie type="stop"/>        <voice>1</voice>        <type>half</type>        <stem default-y="-21">down</stem>        <notations>          <tied type="stop"/>        </notations>      </note>    </measure>    <!--=======================================================-->    <measure number="45" width="112">      <attributes>        <clef>          <sign>G</sign>          <line>2</line>        </clef>      </attributes>      <direction placement="above">        <direction-type>          <words default-y="16" font-family="Times New Roman" font-style="italic">Ritournelle
</words>        </direction-type>      </direction>      <note default-x="10">        <pitch>          <step>G</step>          <octave>4</octave>        </pitch>        <duration>9</duration>        <voice>1</voice>        <type>eighth</type>        <dot/>        <stem default-y="15">up</stem>        <beam number="1">begin</beam>      </note>      <note default-x="10">        <chord/>        <pitch>          <step>B</step>          <octave>4</octave>        </pitch>        <duration>9</duration>        <voice>1</voice>        <type>eighth</type>        <dot/>        <stem>up</stem>      </note>      <note default-x="42">        <pitch>          <step>A</step>          <octave>4</octave>        </pitch>        <duration>3</duration>        <voice>1</voice>        <type>16th</type>        <stem default-y="20">up</stem>        <beam number="1">end</beam>        <beam number="2">backward hook</beam>      </note>      <note default-x="42">        <chord/>        <pitch>          <step>C</step>          <octave>5</octave>        </pitch>        <duration>3</duration>        <voice>1</voice>        <type>16th</type>        <stem>up</stem>      </note>      <note default-x="61">        <pitch>          <step>B</step>          <octave>4</octave>        </pitch>        <duration>6</duration>        <voice>1</voice>        <type>eighth</type>        <stem default-y="-55.5">down</stem>      </note>      <note default-x="61">        <chord/>        <pitch>          <step>D</step>          <octave>5</octave>        </pitch>        <duration>6</duration>        <voice>1</voice>        <type>eighth</type>        <stem>down</stem>      </note>      <note default-x="86">        <rest/>        <duration>6</duration>        <voice>1</voice>        <type>eighth</type>      </note>    </measure>    <!--=======================================================-->    <measure number="46" width="170">      <print new-system="yes">        <system-layout>          <system-distance>114</system-distance>        </system-layout>      </print>      <note default-x="75">        <pitch>          <step>B</step>          <octave>4</octave>        </pitch>        <duration>9</duration>        <voice>1</voice>        <type>eighth</type>        <dot/>        <stem default-y="-55">down</stem>        <beam number="1">begin</beam>      </note>      <note default-x="75">        <chord/>        <pitch>          <step>D</step>          <octave>5</octave>        </pitch>        <duration>9</duration>        <voice>1</voice>        <type>eighth</type>        <dot/>        <stem>down</stem>      </note>      <note default-x="104">        <pitch>          <step>A</step>          <octave>4</octave>        </pitch>        <duration>3</duration>        <voice>1</voice>        <type>16th</type>        <stem default-y="-60">down</stem>        <beam number="1">end</beam>        <beam number="2">backward hook</beam>      </note>      <note default-x="104">        <chord/>        <pitch>          <step>C</step>          <octave>5</octave>        </pitch>        <duration>3</duration>        <voice>1</voice>        <type>16th</type>        <stem>down</stem>      </note>      <note default-x="122">        <pitch>          <step>G</step>          <octave>4</octave>        </pitch>        <duration>9</duration>        <voice>1</voice>        <type>eighth</type>        <dot/>        <stem default-y="15">up</stem>        <beam number="1">begin</beam>      </note>      <note default-x="122">        <chord/>        <pitch>          <step>B</step>          <octave>4</octave>        </pitch>        <duration>9</duration>        <voice>1</voice>        <type>eighth</type>        <dot/>        <stem>up</stem>      </note>      <note default-x="151">        <pitch>          <step>F</step>          <alter>1</alter>          <octave>4</octave>        </pitch>        <duration>3</duration>        <voice>1</voice>        <type>16th</type>        <stem default-y="10">up</stem>        <beam number="1">end</beam>        <beam number="2">backward hook</beam>      </note>      <note default-x="151">        <chord/>        <pitch>          <step>A</step>          <octave>4</octave>        </pitch>        <duration>3</duration>        <voice>1</voice>        <type>16th</type>        <stem>up</stem>      </note>    </measure>    <!--=======================================================-->    <measure number="47" width="72">      <direction placement="above">        <direction-type>          <words default-y="35" font-family="Times New Roman" font-style="italic" relative-x="6">Chant</words>        </direction-type>      </direction>      <note default-x="13">        <pitch>          <step>D</step>          <octave>4</octave>        </pitch>        <duration>24</duration>        <voice>1</voice>        <type>half</type>        <stem default-y="-70.5">down</stem>      </note>      <note default-x="13">        <chord/>        <pitch>          <step>F</step>          <alter>1</alter>          <octave>4</octave>        </pitch>        <duration>24</duration>        <voice>1</voice>        <type>half</type>        <stem>down</stem>      </note>      <note default-x="13">        <chord/>        <pitch>          <step>A</step>          <octave>4</octave>        </pitch>        <duration>24</duration>        <voice>1</voice>        <type>half</type>        <stem>down</stem>      </note>      <note default-x="13">        <chord/>        <pitch>          <step>B</step>          <octave>5</octave>        </pitch>        <duration>24</duration>        <voice>1</voice>        <type>half</type>        <stem>down</stem>      </note>    </measure>    <!--=======================================================-->    <measure number="48" width="112">      <attributes>        <clef>          <sign>F</sign>          <line>4</line>        </clef>      </attributes>      <note default-x="11">        <pitch>          <step>A</step>          <octave>3</octave>        </pitch>        <duration>9</duration>        <voice>1</voice>        <type>eighth</type>        <dot/>        <stem default-y="-36">down</stem>      </note>      <note default-x="41">        <pitch>          <step>C</step>          <octave>4</octave>        </pitch>        <duration>3</duration>        <voice>1</voice>        <type>16th</type>        <stem default-y="-25.5">down</stem>      </note>      <note default-x="63">        <pitch>          <step>B</step>          <octave>3</octave>        </pitch>        <duration>9</duration>        <voice>1</voice>        <type>eighth</type>        <dot/>        <stem default-y="-30.5">down</stem>      </note>      <note default-x="92">        <pitch>          <step>A</step>          <octave>3</octave>        </pitch>        <duration>3</duration>        <voice>1</voice>        <type>16th</type>        <stem default-y="-36">down</stem>      </note>    </measure>    <!--=======================================================-->    <measure number="49" width="107">      <note default-x="11">        <pitch>          <step>G</step>          <octave>3</octave>        </pitch>        <duration>9</duration>        <voice>1</voice>        <type>eighth</type>        <dot/>        <stem default-y="-41">down</stem>      </note>      <note default-x="40">        <pitch>          <step>D</step>          <octave>3</octave>        </pitch>        <duration>3</duration>        <voice>1</voice>        <type>16th</type>        <stem default-y="-56">down</stem>      </note>      <note default-x="58">        <pitch>          <step>G</step>          <octave>3</octave>        </pitch>        <duration>9</duration>        <voice>1</voice>        <type>eighth</type>        <dot/>        <stem default-y="-41">down</stem>      </note>      <note default-x="88">        <pitch>          <step>A</step>          <octave>3</octave>        </pitch>        <duration>3</duration>        <voice>1</voice>        <type>16th</type>        <stem default-y="-36">down</stem>      </note>    </measure>    <!--=======================================================-->    <measure number="50" width="91">      <note default-x="11">        <pitch>          <step>B</step>          <octave>3</octave>        </pitch>        <duration>6</duration>        <voice>1</voice>        <type>eighth</type>        <stem default-y="-30.5">down</stem>      </note>      <note default-x="33">        <rest/>        <duration>6</duration>        <voice>1</voice>        <type>eighth</type>      </note>      <note default-x="55">        <pitch>          <step>D</step>          <octave>4</octave>        </pitch>        <duration>12</duration>        <voice>1</voice>        <type>quarter</type>        <stem default-y="-21">down</stem>      </note>    </measure>    <!--=======================================================-->    <measure number="51" width="69">      <note default-x="11">        <pitch>          <step>B</step>          <octave>3</octave>        </pitch>        <duration>24</duration>        <voice>1</voice>        <type>half</type>        <stem default-y="-30.5">down</stem>      </note>    </measure>    <!--=======================================================-->    <measure number="52" width="112">      <note default-x="11">        <pitch>          <step>A</step>          <octave>3</octave>        </pitch>        <duration>9</duration>        <voice>1</voice>        <type>eighth</type>        <dot/>        <stem default-y="-36">down</stem>      </note>      <note default-x="41">        <pitch>          <step>C</step>          <octave>4</octave>        </pitch>        <duration>3</duration>        <voice>1</voice>        <type>16th</type>        <stem default-y="-25.5">down</stem>      </note>      <note default-x="63">        <pitch>          <step>B</step>          <octave>3</octave>        </pitch>        <duration>9</duration>        <voice>1</voice>        <type>eighth</type>        <dot/>        <stem default-y="-30.5">down</stem>      </note>      <note default-x="92">        <pitch>          <step>A</step>          <octave>3</octave>        </pitch>        <duration>3</duration>        <voice>1</voice>        <type>16th</type>        <stem default-y="-36">down</stem>      </note>    </measure>    <!--=======================================================-->    <measure number="53" width="114">      <note default-x="11">        <pitch>          <step>G</step>          <octave>3</octave>        </pitch>        <duration>9</duration>        <voice>1</voice>        <type>eighth</type>        <dot/>        <stem default-y="-41">down</stem>      </note>      <note default-x="40">        <pitch>          <step>B</step>          <octave>3</octave>        </pitch>        <duration>3</duration>        <voice>1</voice>        <type>16th</type>        <stem default-y="-30.5">down</stem>      </note>      <note default-x="62">        <pitch>          <step>C</step>          <octave>4</octave>        </pitch>        <duration>9</duration>        <voice>1</voice>        <type>eighth</type>        <dot/>        <stem default-y="-25.5">down</stem>      </note>      <note default-x="91">        <pitch>          <step>D</step>          <octave>4</octave>        </pitch>        <duration>3</duration>        <voice>1</voice>        <type>16th</type>        <stem default-y="-21">down</stem>      </note>    </measure>    <!--=======================================================-->    <measure number="54" width="102">      <note default-x="13">        <pitch>          <step>E</step>          <octave>4</octave>        </pitch>        <duration>6</duration>        <voice>1</voice>        <type>eighth</type>        <stem default-y="-21">down</stem>      </note>      <note default-x="35">        <rest/>        <duration>6</duration>        <voice>1</voice>        <type>eighth</type>      </note>      <note default-x="57">        <pitch>          <step>D</step>          <octave>4</octave>        </pitch>        <duration>6</duration>        <voice>1</voice>        <type>eighth</type>        <stem default-y="-21">down</stem>        <notations>          <fermata default-x="-5" default-y="30" type="upright"/>        </notations>      </note>      <note default-x="79">        <rest/>        <duration>6</duration>        <voice>1</voice>        <type>eighth</type>      </note>    </measure>    <!--=======================================================-->    <measure number="55" width="105">      <note default-x="11">        <pitch>          <step>G</step>          <octave>3</octave>        </pitch>        <duration>12</duration>        <voice>1</voice>        <type>quarter</type>        <stem default-y="-41">down</stem>      </note>      <note default-x="11">        <chord/>        <pitch>          <step>B</step>          <octave>3</octave>        </pitch>        <duration>12</duration>        <voice>1</voice>        <type>quarter</type>        <stem>down</stem>      </note>      <direction placement="above">        <direction-type>          <words default-y="75" font-family="Times New Roman" font-style="italic" relative-x="5">Ritournelle
</words>        </direction-type>      </direction>      <note default-x="60">        <pitch>          <step>G</step>          <octave>4</octave>        </pitch>        <duration>6</duration>        <voice>1</voice>        <type>eighth</type>        <stem default-y="-20">down</stem>        <beam number="1">begin</beam>      </note>      <note default-x="60">        <chord/>        <pitch>          <step>C</step>          <octave>5</octave>        </pitch>        <duration>6</duration>        <voice>1</voice>        <type>eighth</type>        <stem>down</stem>      </note>      <note default-x="60">        <chord/>        <pitch>          <step>E</step>          <octave>5</octave>        </pitch>        <duration>6</duration>        <voice>1</voice>        <type>eighth</type>        <stem>down</stem>      </note>      <note default-x="82">        <pitch>          <step>G</step>          <octave>4</octave>        </pitch>        <duration>6</duration>        <voice>1</voice>        <type>eighth</type>        <stem default-y="-20">down</stem>        <beam number="1">end</beam>      </note>      <note default-x="82">        <chord/>        <pitch>          <step>C</step>          <octave>5</octave>        </pitch>        <duration>6</duration>        <voice>1</voice>        <type>eighth</type>        <stem>down</stem>      </note>      <note default-x="82">        <chord/>        <pitch>          <step>E</step>          <octave>5</octave>        </pitch>        <duration>6</duration>        <voice>1</voice>        <type>eighth</type>        <stem>down</stem>      </note>    </measure>    <!--=======================================================-->    <measure number="56" width="184">      <print new-system="yes">        <system-layout>          <system-distance>114</system-distance>        </system-layout>      </print>      <attributes>        <clef>          <sign>G</sign>          <line>2</line>        </clef>      </attributes>      <note default-x="75">        <pitch>          <step>G</step>          <octave>4</octave>        </pitch>        <duration>6</duration>        <voice>1</voice>        <type>eighth</type>        <stem default-y="-65">down</stem>        <beam number="1">begin</beam>      </note>      <note default-x="75">        <chord/>        <pitch>          <step>C</step>          <octave>5</octave>        </pitch>        <duration>6</duration>        <voice>1</voice>        <type>eighth</type>        <stem>down</stem>      </note>      <note default-x="75">        <chord/>        <pitch>          <step>E</step>          <octave>5</octave>        </pitch>        <duration>6</duration>        <voice>1</voice>        <type>eighth</type>        <stem>down</stem>      </note>      <note default-x="102">        <pitch>          <step>G</step>          <octave>4</octave>        </pitch>        <duration>6</duration>        <voice>1</voice>        <type>eighth</type>        <stem default-y="-65">down</stem>        <beam number="1">end</beam>      </note>      <note default-x="102">        <chord/>        <pitch>          <step>B</step>          <octave>4</octave>        </pitch>        <duration>6</duration>        <voice>1</voice>        <type>eighth</type>        <stem>down</stem>      </note>      <note default-x="102">        <chord/>        <pitch>          <step>D</step>          <octave>5</octave>        </pitch>        <duration>6</duration>        <voice>1</voice>        <type>eighth</type>        <stem>down</stem>      </note>      <note default-x="128">        <pitch>          <step>G</step>          <octave>4</octave>        </pitch>        <duration>6</duration>        <voice>1</voice>        <type>eighth</type>        <stem default-y="-65">down</stem>      </note>      <note default-x="128">        <chord/>        <pitch>          <step>B</step>          <octave>4</octave>        </pitch>        <duration>6</duration>        <voice>1</voice>        <type>eighth</type>        <stem>down</stem>      </note>      <note default-x="128">        <chord/>        <pitch>          <step>D</step>          <octave>5</octave>        </pitch>        <duration>6</duration>        <voice>1</voice>        <type>eighth</type>        <stem>down</stem>      </note>      <note default-x="156">        <rest/>        <duration>6</duration>        <voice>1</voice>        <type>eighth</type>      </note>    </measure>    <!--=======================================================-->    <measure number="57" width="131">      <note default-x="10">        <pitch>          <step>E</step>          <octave>4</octave>        </pitch>        <duration>6</duration>        <voice>1</voice>        <type>eighth</type>        <stem default-y="16">up</stem>      </note>      <note default-x="10">        <chord/>        <pitch>          <step>G</step>          <octave>4</octave>        </pitch>        <duration>6</duration>        <voice>1</voice>        <type>eighth</type>        <stem>up</stem>      </note>      <note default-x="10">        <chord/>        <pitch>          <step>B</step>          <octave>4</octave>        </pitch>        <duration>6</duration>        <voice>1</voice>        <type>eighth</type>        <stem>up</stem>      </note>      <note default-x="40">        <rest/>        <duration>6</duration>        <voice>1</voice>        <type>eighth</type>      </note>      <note default-x="70">        <pitch>          <step>E</step>          <octave>4</octave>        </pitch>        <duration>6</duration>        <voice>1</voice>        <type>eighth</type>        <stem default-y="21">up</stem>      </note>      <note default-x="70">        <chord/>        <pitch>          <step>A</step>          <octave>4</octave>        </pitch>        <duration>6</duration>        <voice>1</voice>        <type>eighth</type>        <stem>up</stem>      </note>      <note default-x="70">        <chord/>        <pitch>          <step>C</step>          <octave>5</octave>        </pitch>        <duration>6</duration>        <voice>1</voice>        <type>eighth</type>        <stem>up</stem>      </note>      <note default-x="100">        <rest/>        <duration>6</duration>        <voice>1</voice>        <type>eighth</type>      </note>    </measure>    <!--=======================================================-->    <measure number="58" width="82">      <note default-x="10">        <pitch>          <step>D</step>          <octave>4</octave>        </pitch>        <duration>24</duration>        <voice>1</voice>        <type>half</type>        <stem default-y="11">up</stem>      </note>      <note default-x="10">        <chord/>        <pitch>          <step>F</step>          <alter>1</alter>          <octave>4</octave>        </pitch>        <duration>24</duration>        <voice>1</voice>        <type>half</type>        <stem>up</stem>      </note>      <note default-x="10">        <chord/>        <pitch>          <step>A</step>          <octave>4</octave>        </pitch>        <duration>24</duration>        <voice>1</voice>        <type>half</type>        <stem>up</stem>      </note>    </measure>    <!--=======================================================-->    <measure number="59" width="120">      <note default-x="11">        <pitch>          <step>G</step>          <octave>4</octave>        </pitch>        <duration>6</duration>        <voice>1</voice>        <type>eighth</type>        <stem default-y="-65">down</stem>      </note>      <note default-x="11">        <chord/>        <pitch>          <step>B</step>          <octave>4</octave>        </pitch>        <duration>6</duration>        <voice>1</voice>        <type>eighth</type>        <stem>down</stem>      </note>      <note default-x="11">        <chord/>        <pitch>          <step>D</step>          <octave>5</octave>        </pitch>        <duration>6</duration>        <voice>1</voice>        <type>eighth</type>        <stem>down</stem>      </note>      <note default-x="11">        <chord/>        <pitch>          <step>G</step>          <octave>5</octave>        </pitch>        <duration>6</duration>        <voice>1</voice>        <type>eighth</type>        <stem>down</stem>      </note>      <note default-x="38">        <rest/>        <duration>6</duration>        <voice>1</voice>        <type>eighth</type>      </note>      <note default-x="65">        <pitch>          <step>G</step>          <octave>4</octave>        </pitch>        <duration>6</duration>        <voice>1</voice>        <type>eighth</type>        <stem default-y="-65">down</stem>        <beam number="1">begin</beam>      </note>      <note default-x="65">        <chord/>        <pitch>          <step>B</step>          <octave>4</octave>        </pitch>        <duration>6</duration>        <voice>1</voice>        <type>eighth</type>        <stem>down</stem>      </note>      <note default-x="65">        <chord/>        <pitch>          <step>D</step>          <octave>5</octave>        </pitch>        <duration>6</duration>        <voice>1</voice>        <type>eighth</type>        <stem>down</stem>      </note>      <note default-x="92">        <pitch>          <step>G</step>          <octave>4</octave>        </pitch>        <duration>6</duration>        <voice>1</voice>        <type>eighth</type>        <stem default-y="-65">down</stem>        <beam number="1">end</beam>      </note>      <note default-x="92">        <chord/>        <pitch>          <step>C</step>          <octave>5</octave>        </pitch>        <duration>6</duration>        <voice>1</voice>        <type>eighth</type>        <stem>down</stem>      </note>      <note default-x="92">        <chord/>        <pitch>          <step>E</step>          <octave>5</octave>        </pitch>        <duration>6</duration>        <voice>1</voice>        <type>eighth</type>        <stem>down</stem>      </note>    </measure>    <!--=======================================================-->    <measure number="60" width="119">      <note default-x="10">        <pitch>          <step>G</step>          <octave>4</octave>        </pitch>        <duration>6</duration>        <voice>1</voice>        <type>eighth</type>        <stem default-y="-65">down</stem>        <beam number="1">begin</beam>      </note>      <note default-x="10">        <chord/>        <pitch>          <step>C</step>          <octave>5</octave>        </pitch>        <duration>6</duration>        <voice>1</voice>        <type>eighth</type>        <stem>down</stem>      </note>      <note default-x="10">        <chord/>        <pitch>          <step>E</step>          <octave>5</octave>        </pitch>        <duration>6</duration>        <voice>1</voice>        <type>eighth</type>        <stem>down</stem>      </note>      <note default-x="37">        <pitch>          <step>G</step>          <octave>4</octave>        </pitch>        <duration>6</duration>        <voice>1</voice>        <type>eighth</type>        <stem default-y="-65">down</stem>        <beam number="1">end</beam>      </note>      <note default-x="37">        <chord/>        <pitch>          <step>B</step>          <octave>4</octave>        </pitch>        <duration>6</duration>        <voice>1</voice>        <type>eighth</type>        <stem>down</stem>      </note>      <note default-x="37">        <chord/>        <pitch>          <step>D</step>          <octave>5</octave>        </pitch>        <duration>6</duration>        <voice>1</voice>        <type>eighth</type>        <stem>down</stem>      </note>      <note default-x="64">        <pitch>          <step>G</step>          <octave>4</octave>        </pitch>        <duration>6</duration>        <voice>1</voice>        <type>eighth</type>        <stem default-y="-65">down</stem>      </note>      <note default-x="64">        <chord/>        <pitch>          <step>B</step>          <octave>4</octave>        </pitch>        <duration>6</duration>        <voice>1</voice>        <type>eighth</type>        <stem>down</stem>      </note>      <note default-x="64">        <chord/>        <pitch>          <step>D</step>          <octave>5</octave>        </pitch>        <duration>6</duration>        <voice>1</voice>        <type>eighth</type>        <stem>down</stem>      </note>      <note default-x="91">        <rest/>        <duration>6</duration>        <voice>1</voice>        <type>eighth</type>      </note>    </measure>    <!--=======================================================-->    <measure number="61" width="134">      <note default-x="10">        <pitch>          <step>D</step>          <octave>4</octave>        </pitch>        <duration>6</duration>        <voice>1</voice>        <type>eighth</type>        <stem default-y="16">up</stem>      </note>      <note default-x="10">        <chord/>        <pitch>          <step>G</step>          <octave>4</octave>        </pitch>        <duration>6</duration>        <voice>1</voice>        <type>eighth</type>        <stem>up</stem>      </note>      <note default-x="10">        <chord/>        <pitch>          <step>B</step>          <octave>4</octave>        </pitch>        <duration>6</duration>        <voice>1</voice>        <type>eighth</type>        <stem>up</stem>      </note>      <note default-x="41">        <rest/>        <duration>6</duration>        <voice>1</voice>        <type>eighth</type>      </note>      <note default-x="72">        <pitch>          <step>C</step>          <octave>4</octave>        </pitch>        <duration>6</duration>        <voice>1</voice>        <type>eighth</type>        <stem default-y="11">up</stem>      </note>      <note default-x="83">        <chord/>        <pitch>          <step>D</step>          <octave>4</octave>        </pitch>        <duration>6</duration>        <voice>1</voice>        <type>eighth</type>        <stem>up</stem>      </note>      <note default-x="72">        <chord/>        <pitch>          <step>F</step>          <alter>1</alter>          <octave>4</octave>        </pitch>        <duration>6</duration>        <voice>1</voice>        <type>eighth</type>        <stem>up</stem>      </note>      <note default-x="72">        <chord/>        <pitch>          <step>A</step>          <octave>4</octave>        </pitch>        <duration>6</duration>        <voice>1</voice>        <type>eighth</type>        <stem>up</stem>      </note>      <note default-x="102">        <rest/>        <duration>6</duration>        <voice>1</voice>        <type>eighth</type>      </note>    </measure>    <!--=======================================================-->    <measure number="62" width="87">      <note default-x="14">        <pitch>          <step>B</step>          <octave>3</octave>        </pitch>        <duration>24</duration>        <tie type="start"/>        <voice>1</voice>        <type>half</type>        <stem default-y="6">up</stem>        <notations>          <tied type="start"/>        </notations>      </note>      <note default-x="14">        <chord/>        <pitch>          <step>D</step>          <octave>4</octave>        </pitch>        <duration>24</duration>        <tie type="start"/>        <voice>1</voice>        <type>half</type>        <stem>up</stem>        <notations>          <tied type="start"/>        </notations>      </note>      <note default-x="14">        <chord/>        <pitch>          <step>G</step>          <octave>4</octave>        </pitch>        <duration>24</duration>        <tie type="start"/>        <voice>1</voice>        <type>half</type>        <stem>up</stem>        <notations>          <tied type="start"/>        </notations>      </note>    </measure>    <!--=======================================================-->    <measure number="63" width="87">      <note default-x="14">        <pitch>          <step>B</step>          <octave>3</octave>        </pitch>        <duration>24</duration>        <tie type="stop"/>        <voice>1</voice>        <type>half</type>        <stem default-y="6">up</stem>        <notations>          <tied type="stop"/>        </notations>      </note>      <note default-x="14">        <chord/>        <pitch>          <step>D</step>          <octave>4</octave>        </pitch>        <duration>24</duration>        <tie type="stop"/>        <voice>1</voice>        <type>half</type>        <stem>up</stem>        <notations>          <tied type="stop"/>        </notations>      </note>      <note default-x="14">        <chord/>        <pitch>          <step>G</step>          <octave>4</octave>        </pitch>        <duration>24</duration>        <tie type="stop"/>        <voice>1</voice>        <type>half</type>        <stem>up</stem>        <notations>          <tied type="stop"/>        </notations>      </note>    </measure>    <!--=======================================================-->    <measure number="64" width="109">      <note default-x="11">        <pitch>          <step>G</step>          <octave>4</octave>        </pitch>        <duration>6</duration>        <voice>1</voice>        <type>eighth</type>        <stem default-y="-65">down</stem>      </note>      <note default-x="11">        <chord/>        <pitch>          <step>B</step>          <octave>4</octave>        </pitch>        <duration>6</duration>        <voice>1</voice>        <type>eighth</type>        <stem>down</stem>      </note>      <note default-x="11">        <chord/>        <pitch>          <step>D</step>          <octave>5</octave>        </pitch>        <duration>6</duration>        <voice>1</voice>        <type>eighth</type>        <stem>down</stem>      </note>      <note default-x="11">        <chord/>        <pitch>          <step>G</step>          <octave>5</octave>        </pitch>        <duration>6</duration>        <voice>1</voice>        <type>eighth</type>        <stem>down</stem>      </note>      <note default-x="36">        <rest/>        <duration>6</duration>        <voice>1</voice>        <type>eighth</type>      </note>      <note default-x="60">        <rest/>        <duration>12</duration>        <voice>1</voice>        <type>quarter</type>        <notations>          <fermata default-x="-7" default-y="5" type="upright"/>        </notations>      </note>      <barline location="right">        <bar-style>light-heavy</bar-style>      </barline>    </measure>  </part>  <!--=========================================================--></score-partwise>